<?xml version="1.0" encoding="UTF-8"?>
<!DOCTYPE svg PUBLIC "-//W3C//DTD SVG 1.1//EN" "http://www.w3.org/Graphics/SVG/1.1/DTD/svg11.dtd">
<!-- Creator: CorelDRAW 2019 (64-Bit) -->
<svg xmlns="http://www.w3.org/2000/svg" xml:space="preserve" width="72.437mm" height="81.789mm" version="1.1" style="shape-rendering:geometricPrecision; text-rendering:geometricPrecision; image-rendering:optimizeQuality; fill-rule:evenodd; clip-rule:evenodd"
viewBox="0 0 7243.7 8178.9"
 xmlns:xlink="http://www.w3.org/1999/xlink"
 xmlns:xodm="http://www.corel.com/coreldraw/odm/2003">
 <defs>
  <style type="text/css">
   <![CDATA[
    .fil1 {fill:#FEFEFE}
    .fil0 {fill:#FEFEFE;fill-rule:nonzero}
   ]]>
  </style>
 </defs>
 <g id="Layer_x0020_1">
  <metadata id="CorelCorpID_0Corel-Layer"/>
  <g id="_500330797728">
   <path class="fil0" d="M813.78 1712.7c-24.99,-1.56 -46.75,-7.2 -65.34,-17.08 -18.59,-9.87 -34.36,-19.93 -47.3,-30.55 -14.7,-12.68 -27.6,-26.87 -38.85,-42.52 -24.87,-37.72 -42.61,-87.74 -52.99,-149.83 -9.06,-53.58 -12.9,-117.26 -11.35,-191.06 1.22,-60.13 6.34,-125.26 15.45,-195.6 9.11,-70.35 22,-146.5 38.45,-228.57 -3,-49.57 -9.42,-93.29 -18.96,-131.28 -9.55,-37.98 -20.75,-71.79 -33.63,-101.42 -17.76,12.88 -37.47,24.61 -58.94,34.8 -21.48,10.18 -41.63,19.37 -60.41,27.2 -21.92,8.99 -44.09,17.75 -66.28,25.99 -65.98,24.53 -126.26,39.31 -180.9,44.19 -54.63,4.88 -100.88,-0.98 -138.76,-17.59 -29.15,-12.73 -51.92,-30.7 -68.2,-53.98 -16.28,-23.27 -24.91,-50.58 -25.73,-81.98 -0.69,-26.02 5.97,-51.88 19.86,-77.9 6.27,-12.33 14.13,-23.56 23.38,-33.78 9.26,-10.22 19.61,-20.68 31.12,-31.23 22.94,-18.53 49.49,-34.67 79.58,-48.56 30.09,-13.91 62.27,-24.51 96.65,-31.86 41.26,-8.05 81.92,-11.3 121.96,-9.39 40.03,1.9 76.94,9.54 110.99,23.16 73.14,28.91 126.84,76.25 161.32,142.09 18.92,-9.74 37.75,-20.64 56.41,-32.48 18.65,-11.85 36.01,-23.06 51.94,-33.55 18.03,-12.14 35.61,-24.6 52.63,-37.2 18.32,-14.1 37.36,-28.98 57.19,-44.99 19.81,-16.01 37.5,-30.89 53.16,-44.85 18.18,-16.75 36.42,-33.37 54.61,-50.13 66.1,-60.68 127.73,-111.05 185.28,-150.92 57.57,-39.87 114.24,-72.13 170.27,-96.51 17.14,-7.23 35.91,-14.2 56,-20.82 16.95,-5.46 36.54,-10.7 58.59,-15.67 22.05,-4.99 45.18,-7.98 69.29,-8.8 9.94,-0.15 23.13,0.21 39.64,0.85 16.51,0.65 32.89,3.2 48.93,7.59 16.04,4.37 30.11,11.69 41.96,21.68 11.86,10.01 18.37,23.86 19.52,41.58 0.76,4.29 0.44,8.47 -0.77,12.49 -0.48,3.73 -1.79,7.95 -4.2,12.41 -2.42,4.45 -5.26,8.22 -8.67,11.35 -5.24,5.51 -12.25,9.47 -21.31,12 -9.07,2.52 -20.83,2.31 -35.41,-0.41 -8.64,-1.36 -18.23,-3.9 -28.62,-7.67 -10.39,-3.77 -22.38,-7.78 -35.59,-11.85 -20.84,-4.97 -42.56,-6.39 -65.31,-4.21 -12.32,1.03 -24.69,2.9 -37.21,5.7 -26.35,4.36 -53.45,11.73 -81.3,22.08 -27.85,10.35 -54.75,21.88 -80.66,34.73 -25.91,12.85 -50.53,26.41 -73.62,40.92 -23.08,14.52 -43.13,28.07 -60.15,40.67 -23.28,17.64 -49.64,37.94 -79.17,60.63 -29.55,22.67 -57.86,44.56 -84.85,65.44 -26.99,20.88 -50.64,39.33 -70.9,55.51 -20.27,16.17 -32.91,25.96 -37.81,29.64 -12.51,48.9 -25.53,103.23 -39.08,163.03 -13.54,59.78 -26.76,121.83 -39.89,186.38 -13.13,64.54 -24.92,129.96 -35.53,196.29 -10.61,66.32 -19.05,131.16 -25.33,194.53 -6.29,63.36 -9.71,123.46 -10.34,180.14 -0.63,56.68 2.75,107.29 10.2,151.49 1.62,9.39 4.55,20.01 8.53,32.09 3.98,12.08 9.9,23.44 17.46,34.19 7.56,10.75 17.55,19.41 30.05,26.12 12.5,6.72 27.71,8.87 45.88,6.69 6.12,-0.42 12.33,-1.03 18.45,-1.44 5.38,-0.14 10.81,-0.11 16.3,0.04 5.48,0.17 10.91,1.54 16.42,4.06 8.79,4.04 15.76,10.94 21.22,20.6 5.46,9.67 6.03,22.17 1.68,37.35 -2.39,8.17 -6.45,14.1 -12.26,18.11 -5.79,4.02 -12.27,7.12 -19.59,9.32 -7.31,2.21 -15.01,3.38 -23.22,3.21 -8.2,-0.17 -15.54,-0.32 -21.94,-0.66zm-541.99 -1293.01c-23.95,3.48 -45.4,8.73 -64.01,15.65 -18.63,6.92 -34.44,13.65 -47.38,20.33 -15.05,8.3 -28.93,17.02 -41.73,26.35 -21.17,16.01 -35.82,31.79 -44.03,47.56 -8.21,15.77 -12.71,29.65 -13.66,41.69 -1.7,15.05 0.38,28.85 5.83,41.24 8.58,23.08 25.31,38.91 50.3,47.75 24.99,8.85 50.69,13.71 77.32,14.66 30.37,1.42 64.28,-0.84 101.93,-6.7 48.55,-8.04 96.05,-20.28 142.35,-36.63 46.3,-16.37 91.3,-35.3 134.8,-56.9 -12.26,-20.69 -23.92,-38.4 -35.17,-52.69 -11.26,-14.3 -21.71,-26.01 -31.38,-35.13 -11.1,-10.28 -21.34,-18.68 -31.01,-25.09 -17.65,-13.27 -35.94,-23.25 -55.12,-29.69 -19.17,-6.43 -37.47,-10.99 -55.15,-13.4 -17.68,-2.41 -34.65,-3.39 -51.17,-2.68 -16.53,0.72 -30.66,1.9 -42.72,3.68zm425.13 235.26c5.25,-20.09 9.94,-38.96 14.16,-56.8 4.21,-17.84 9.04,-35.4 14.27,-52.78 -19.8,14.66 -38.74,27.12 -56.64,37.34 3.69,7.61 7.99,17.37 12.86,29.12 4.88,11.75 9.9,26.15 15.35,43.12zm308.17 564.54c1.5,4.02 3.27,7.43 5.18,10.28 1.16,3.13 2.37,5.9 3.69,8.12 1.34,2.21 2.21,4.1 2.82,5.74 2.78,5.23 4.13,10.67 3.96,16.15 -0.16,5.49 -3.17,10.16 -8.96,14.18 -3.35,3.29 -6.6,5.51 -9.73,6.67 -3.13,1.16 -7.05,2.45 -11.54,3.61 -4.49,1.16 -9.38,0.77 -14.62,-1 -11.91,-2.87 -21.82,-7.66 -29.86,-14.68 -11.11,-10.27 -20.31,-23.63 -27.71,-39.87 -7.39,-16.25 -13,-31.79 -16.67,-46.7 -4.56,-17.28 -8.55,-35.3 -11.9,-53.89 -3.62,-26.62 -6.07,-54.19 -7.64,-82.59 -1.57,-28.41 -2.46,-55.88 -2.81,-82.37 -0.36,-26.47 -0.1,-51.32 0.88,-74.23 0.98,-22.91 1.9,-42.75 3,-59.43 1.75,-34.05 4.96,-68.29 9.37,-102.48 4.42,-34.19 9.89,-68.26 16.22,-102.32 -16.69,6.2 -33.48,12.11 -50.38,17.71 -14.3,5.32 -30.05,10.83 -47.35,16.76 -17.29,5.91 -33.6,11.29 -48.97,15.99 -33.64,11.66 -61.44,26.23 -83.37,43.88 -21.92,17.64 -40.2,35.96 -54.84,54.96 -14.63,19 -26.88,37.12 -36.75,54.35 -9.87,17.23 -19.61,31.18 -29.14,42.01 -12.67,14.72 -23.95,23.15 -33.91,25.5 -9.98,2.35 -18.99,2.31 -27.16,-0.07 -9.2,-2.86 -17.4,-8.96 -24.34,-18.09 -13.78,-17.42 -17.15,-35.16 -10.27,-53.14 6.88,-17.98 17.08,-34.31 30.5,-49.3 16.32,-16.75 36.53,-33.07 60.42,-49.08 12.66,-7.42 28.81,-15.96 48.63,-26.04 17.6,-8.75 40.39,-18.57 68.37,-29.49 27.99,-10.9 63.36,-23.37 106.12,-37.4 20.97,-6.95 39.86,-13.63 56.82,-20.44 16.95,-6.81 31.98,-12.91 45.32,-18.54 14.71,-6.49 28.37,-12.59 40.7,-18.18 9.65,-39.7 20.31,-78.07 31.87,-114.92 11.57,-36.85 24,-70.45 37.19,-100.62 13.2,-30.16 26.48,-56.45 39.96,-78.58 13.47,-22.14 27.02,-39.04 40.91,-50.47 6.73,-6.07 14.29,-11.26 22.81,-15.26 6.87,-3.4 14.66,-6.14 23.45,-8.04 8.78,-1.91 17.63,-1.81 26.56,0.3 11.17,3.13 21.25,9.73 30.44,19.88 7.84,8.77 14.82,21.61 21.02,38.29 6.2,16.68 8.68,39.32 7.53,67.72 -2.44,29.89 -10.15,58.87 -23.16,87.27 -11.51,25.12 -28.79,50.71 -52.07,76.98 -23.29,26.3 -56.03,49.48 -98.17,69.72 -4.09,23.22 -7.56,46.72 -10.48,70.35 -2.58,19.94 -5.62,41.42 -9.26,64.46 -3.63,23.05 -6.67,44.53 -9.25,64.48 -2.93,26.34 -5.65,54.14 -8.43,83.14 -2.3,25.27 -4.3,53.64 -5.75,84.86 -1.45,31.22 -2.28,62.73 -2.21,94.4 3.34,-12.94 6.93,-26.99 10.84,-42 3.9,-15.02 9.03,-29.98 15.15,-44.97 8.24,-23.91 18.02,-48.23 29.07,-73.18 11.07,-24.97 23.34,-48.51 36.81,-70.64 13.47,-22.13 27.72,-42.18 42.8,-59.99 15.08,-17.81 30.98,-32.03 47.8,-42.86 8.19,-4.9 17.12,-8.22 26.82,-9.96 9.69,-1.74 19.77,-1.08 30.05,2.39 17.98,6.87 29.41,19.41 34.25,37.44 4.85,18.04 6.75,34.12 5.67,48.08 -1.65,7.9 -2.93,15.83 -4.01,23.86 -1.09,8.03 -2.66,16.59 -4.76,25.51 -2.73,14.57 -6.43,35.61 -11.13,63.12 -4.68,27.52 -8.43,56.2 -11.32,86.26 -2.9,30.06 -3.97,59.1 -3.46,87.4 0.52,28.28 4.52,50.02 12.09,65.34 2.79,5.24 6.98,10.12 12.16,14.47 5.17,4.35 11.75,2.42 19.5,-5.89 7.76,-8.31 14.96,-19.96 21.53,-35.12 6.57,-15.16 12.6,-29.95 17.98,-44.66 6.13,-17.7 11.73,-36.4 16.98,-56.49 6.18,-22.13 11.46,-44.44 15.81,-66.9 4.37,-22.47 8.33,-43.27 11.94,-62.75 3.61,-19.48 6.89,-36.64 9.89,-51.83 3.01,-15.19 6.13,-26.85 9.26,-35.31 0.46,-1.01 1.49,-1.9 3.13,-2.51 4.02,-1.5 8.16,-2.2 12.79,-2.05 3.75,0.48 6.1,3.16 7.13,8.2 -0.14,1.92 -0.1,7.49 0.17,16.89 0.27,9.39 -0.27,21.63 -1.96,36.67 -3.26,40.02 -8.84,79.74 -16.87,118.82 -6.65,33.16 -16.19,67.73 -28.64,103.55 -12.45,35.82 -28.4,66.33 -47.94,91.73 -1.37,1.35 -4.76,4.99 -10.3,10.6 -5.54,5.63 -13.3,11.22 -22.96,16.68 -9.67,5.46 -21.15,9.22 -34.4,11.43 -13.25,2.22 -27.53,0.74 -42.99,-4.37 -12.46,-4.34 -23.18,-13.58 -31.91,-27.46 -8.72,-13.88 -16.29,-31.07 -22.46,-51.32 -6.18,-20.25 -10.8,-42.26 -13.72,-66.1 -2.93,-23.83 -3.94,-47.52 -2.84,-71.5 0.47,-15.6 1.73,-33.19 3.42,-52.8 1.69,-19.62 3.69,-37.49 5.81,-53.7 2.86,-19.2 5.63,-38.2 8.5,-57.4 -6.74,6.06 -18.59,22.5 -35.34,49.07 -16.73,26.56 -33.36,59.36 -49.53,98.42 -16.16,39.07 -29.78,81.76 -40.46,128.28 -10.68,46.52 -13.19,92.21 -7.39,137.01zm142.53 -940.92c-2.99,-0.76 -8.04,-0.23 -15.03,1.52 -6.98,1.74 -15.34,9.77 -24.91,24.18 -9.57,14.4 -20.33,37.89 -32.19,70.27 -11.87,32.39 -24.31,78.72 -37.3,138.64 19.82,-10.08 36.51,-21.71 50.09,-34.9 13.58,-13.18 24.62,-25.42 33.14,-36.73 9.39,-13.48 17.18,-26.73 23.17,-39.8 10.06,-26.29 15.78,-47.39 17.15,-63.33 1.37,-15.93 1.14,-28.39 -0.49,-37.8 -1.9,-10.14 -6.47,-17.42 -13.63,-22.05zm378.18 780.26c15.6,3.18 31.56,0.97 47.64,-6.86 16.07,-7.84 30.84,-16.89 44.11,-27.25 15.38,-11.98 30.13,-26.12 44.01,-42.13 9.27,-11.57 17.13,-22.81 23.39,-33.77 6.25,-10.98 11.57,-20.42 15.92,-28.31 8.52,-18.59 16.31,-37.75 23.38,-57.51 7.06,-19.74 13.48,-38.06 19.05,-54.54 5.86,-18.45 11.1,-37.18 15.78,-56.04 5.25,-20.1 10.16,-39.72 14.68,-59.02 4.52,-19.32 8.96,-36.57 13.32,-51.74 1.21,-4.02 2.55,-7.74 4.05,-11 2.52,-5.52 5.54,-8.34 8.95,-8.75 4.63,0.13 8.76,1.65 12.63,4.79 3.88,3.14 5.35,9.37 4.26,18.76 -1.7,15.04 -3.97,30.8 -6.83,47.29 -2.25,13.56 -4.75,28.73 -7.5,45.51 -2.74,16.78 -6.09,33.29 -10.18,49.22 -1.36,5.92 -2.99,12.46 -4.97,19.47 -3.61,12.19 -8.71,27.65 -15.31,46.38 -2.85,9.2 -8.25,23.41 -16.04,42.57 -7.79,19.17 -18.73,40.36 -32.61,63.66 -13.89,23.31 -30.84,46.56 -50.72,69.71 -19.87,23.15 -43.64,42.66 -71.21,58.34 -28.47,16 -53.21,26.04 -74.18,30.29 -20.97,4.23 -38.83,5.45 -53.58,3.63 -14.74,-1.81 -25.64,-4.7 -33.07,-8.72 -7.43,-4.02 -11.07,-6.06 -11.07,-6.06 -17.09,-11.78 -31.62,-30.8 -43.57,-57.04 -11.96,-26.24 -20.22,-62.15 -24.39,-107.56 -3.34,-33.17 -3.6,-64.43 -0.99,-93.88 2.61,-29.45 6.16,-55.01 10.86,-76.59 5.85,-25.74 12.61,-48.6 20.58,-68.67 8.1,-22.01 17.25,-41.17 27.39,-57.66 10.15,-16.48 19.59,-29.83 28.39,-40.38 10.62,-12.93 21.5,-23.76 32.67,-32.49 7.62,-6.4 15.94,-11.86 25.2,-16.14 8.5,-4.02 18.15,-7.26 29.03,-9.44 10.89,-2.19 22.94,-2.6 36.16,-1.24 5.19,1.63 10.72,3.31 16.65,4.67 5.18,1.62 10.85,4.09 16.94,7.26 6.09,3.16 12.31,7.12 18.71,12.02 8.59,8.51 16.76,19.55 24.45,32.96 6.07,11.3 11.93,25.23 17.51,41.64 5.59,16.4 8.62,35.95 8.84,58.42l0.45 1.19c-0.07,21.72 -3.5,44.86 -10.1,69.52 -6.61,24.66 -17.8,48.82 -33.32,72.74 -13.75,21.38 -28.33,40.53 -43.68,57.6 -15.36,17.06 -30.3,31.59 -44.77,43.76 -14.46,12.16 -27.73,22.51 -39.96,31.12 -12.22,8.62 -22.41,14.95 -30.92,18.96 3.68,14.9 9.66,28.28 17.66,40.22 7.99,11.94 20.1,18.97 36.31,21.09zm102.91 -343.39c1.1,-23.97 -0.1,-42.68 -3.33,-56.4 -3.24,-13.72 -7.61,-24.13 -12.93,-31.13 -6.39,-7.62 -13.35,-12.66 -20.64,-15.39 -21.25,-1.08 -40.45,13.85 -57.78,45.22 -17.33,31.35 -33.33,72.23 -47.89,122.89 -5.24,20.1 -9.49,40.15 -12.82,60.37 -3.47,17.58 -5.99,36.82 -7.68,57.78 -1.7,20.98 -1.55,41.44 0.49,61.53 20.71,-14.99 40.43,-32.16 59.37,-51.9 18.93,-19.76 35.82,-40.45 50.76,-62.27 14.94,-21.83 27.12,-43.81 36.57,-65.8 9.46,-22 14.8,-43.65 15.88,-64.9z"/>
   <path class="fil0" d="M1461.09 4415.28c-2.98,0 -5.71,-1.49 -8.19,-4.47 -2.48,-2.98 -3.72,-5.96 -3.72,-8.94l-1.49 -1023.35c0,-3.98 1.24,-7.2 3.72,-9.69 2.48,-2.48 5.21,-3.72 8.19,-3.72l229.4 0c2.98,0 5.71,1.24 8.2,3.72 2.48,2.49 3.72,5.71 3.72,9.69l1.49 1023.35c0,2.98 -1.24,5.96 -3.73,8.94 -2.48,2.98 -5.21,4.47 -8.19,4.47l-229.4 0zm658.41 -680.75c-27.81,44.69 -41.71,95.34 -41.71,151.94 0,53.63 12.91,104.02 38.73,151.19 25.82,47.18 63.56,83.17 113.21,108 49.65,25.82 104.27,38.73 163.86,38.73 50.64,0 108.24,-8.44 172.79,-25.32 2.98,-1 6.21,-1.99 9.68,-2.98 3.48,-1 7.2,-1.49 11.17,-1.49 8.94,0 16.39,9.93 22.35,29.79l47.67 157.9c0.99,1.98 1.48,4.96 1.48,8.94 0,8.93 -3.72,16.88 -11.17,23.83 -7.45,6.95 -12.16,10.43 -14.15,10.43 -74.48,28.8 -152.43,43.19 -233.87,43.19 -107.25,0 -204.57,-24.33 -291.96,-72.99 -88.38,-48.66 -155.91,-113.21 -202.58,-193.64 -23.84,-40.72 -41.96,-84.91 -54.37,-132.58 -12.42,-47.67 -18.62,-95.83 -18.62,-144.49 0,-101.29 24.33,-191.66 72.99,-271.11 50.64,-83.41 117.68,-147.47 201.09,-192.15 87.39,-46.68 186.7,-70.02 297.92,-70.02 84.41,0 162.37,13.91 233.87,41.71 11.92,4.97 19.37,9.19 22.34,12.66 2.98,3.48 3.48,9.69 1.49,18.62l-49.15 174.29c-1.99,7.94 -3.73,13.16 -5.22,15.64 -1.49,2.48 -5.21,3.72 -11.17,3.72 -7.94,0 -19.86,-1.98 -35.75,-5.96 -13.9,-3.97 -28.8,-6.95 -44.69,-8.93 -41.71,-7.95 -81.92,-11.92 -120.65,-11.92 -124.14,0 -216,47.67 -275.58,143z"/>
   <path class="fil0" d="M1334.76 3390.44c2.41,2.98 3.61,5.96 3.61,8.94l-1.81 5.95 -623.16 1014.42 -5.43 5.96c-2.4,1.99 -5.42,2.98 -9.03,2.98 -6.01,0 -10.23,-1.99 -12.63,-5.96l-626.79 -1018.89c-2.41,-3.97 -3.01,-6.95 -1.8,-8.93 0,-1 1.8,-2.98 5.42,-5.96 2.4,-1.99 5.41,-2.98 9.02,-2.98l301.66 0c3.61,0 7.21,1.49 10.83,4.47 2.41,1.98 3.61,3.47 3.61,4.47l310.68 528.8 312.5 -531.78c2.4,-3.97 6.62,-5.96 12.64,-5.96l298.04 0c4.81,0 9.02,1.49 12.64,4.47z"/>
   <path class="fil0" d="M5469.26 4376.82c4.32,4.97 4.32,9.44 0,13.41 -1.09,2.98 -4.86,4.47 -11.35,4.47l-282.1 0c-5.41,0 -9.19,-1.99 -11.35,-5.96l-205.91 -381.34 -66.47 -1.49 0 370.91c0,2.98 -0.54,5.47 -1.62,7.45 -1.07,1.99 -2.16,3.48 -3.24,4.47 -4.32,3.97 -8.64,5.96 -12.97,5.96l-243.2 0c-3.24,0 -6.21,-1.24 -8.91,-3.72 -2.7,-2.49 -4.05,-5.22 -4.05,-8.2l0 -1020.37c0,-3.98 1.35,-6.96 4.05,-8.94 2.7,-1.99 5.67,-2.98 8.91,-2.98l462.07 0c56.21,-1.99 108.09,8.44 155.64,31.28 47.57,22.84 87.28,55.12 119.17,96.83 31.88,41.7 52.15,88.87 60.8,141.51 2.16,19.86 3.24,34.75 3.24,44.69 0,68.52 -18.38,130.34 -55.12,185.45 -36.76,55.12 -88.63,94.09 -155.64,116.93l248.05 409.64zm-321.01 -624.14c16.21,-22.84 24.32,-46.67 24.32,-71.5l0 -2.98c3.24,-24.83 -4.87,-47.67 -24.32,-68.52 -20.54,-20.85 -45.4,-31.28 -74.59,-31.28l-181.58 0 0 205.56 181.58 0c30.27,0 55.13,-10.42 74.59,-31.28zm1337.56 -396.23c2.15,0.99 3.23,3.23 3.23,6.7 0,3.48 -1.08,6.21 -3.23,8.19l-377.76 534.77 0 473.69c0,2.98 -1.35,5.71 -4.06,8.2 -2.7,2.48 -5.68,3.72 -8.92,3.72l-246.43 0c-4.33,0 -7.57,-1.24 -9.73,-3.72 -2.16,-2.49 -3.24,-5.22 -3.24,-8.2l-1.62 -481.14 -361.54 -527.32c-1.09,-0.99 -1.63,-3.47 -1.63,-7.44 0,-7.95 3.78,-11.92 11.35,-11.92l269.14 0c6.47,0 10.26,1.99 11.34,5.96l210.77 326.22 220.49 -326.22c1.08,-3.97 4.87,-5.96 11.35,-5.96l270.76 0c3.24,0 6.48,1.49 9.73,4.47z"/>
   <polygon class="fil1" points="3018.01,2454.26 2953.78,2806.78 2527.12,2804.16 2474.9,3127.94 2895.25,3127.94 2589.79,4804.26 2976.23,4804.26 3264.24,3127.94 4166.9,3127.94 4219.12,2814.61 3319.03,2809.05 3383.57,2433.38 "/>
   <path class="fil1" d="M3496.13 3359.98l5.31 0.39c2.96,4.77 9.64,0.82 14.19,-0.6 17.19,-5.35 5.28,-4.55 4.11,-7.7 -0.31,-0.84 -1.18,-0.57 -1.68,-0.98 10.47,-0.52 6.59,-3.2 14.71,-5.85 16.73,-5.47 10.32,-4.73 20.12,-8.56 0.71,-1.84 -4.8,0.16 1.22,-2.78 1.75,-6.13 -4.43,-1.71 6.6,-5.48 12.68,-4.35 9.15,-0.95 25.79,-8.81 11.08,-5.24 22.63,-8.31 34.43,-12.03 1.59,-4.49 1.81,1.5 -0.75,-2.06 -3.21,-4.46 -2.2,2.4 -0.91,-0.48 8.68,-0.94 21.57,-4.96 27.56,-8.47 -10.9,-2.63 -18.61,-2.38 -30.26,-1.38 3.72,-4.11 8.9,-5.52 14.18,-7.69l42.66 -15.48c63.65,-22.4 134.27,-31.64 203.1,-31.16 46.86,0.32 96.35,5.53 140.41,15.99 21.31,5.06 40.14,10.15 60.98,17.04l43.65 16c4.85,1.98 9.01,2.78 10.59,7.76 -1.87,1.07 0.54,0.48 -3.49,0.86l-9.21 -0.27 -2.98 6.62c-4.22,-7.56 -21.01,-6.6 -27.52,-4.67l1.86 7.01c1.9,2.2 3.92,3.41 6.86,4.95 1.75,0.91 2.56,1.04 4.52,2.25 5.68,3.49 -0.1,4.55 10.04,4.72 -0.34,0.24 -0.91,0.48 -1.08,0.6 -0.16,0.11 -0.8,0.44 -0.96,0.59 -2.5,2.18 -3.01,-0.34 -0.94,2.22l16.07 7.5c8.46,-7.32 9.78,-16.01 20.06,-18.78 2.07,1.46 5.86,4.45 6.7,6.07l-1.01 4.65c9.23,-0.93 15.68,3.56 21.54,-2.73l-12.89 -5.86c-10.5,-5.87 -16.94,-6.28 -23.72,-9.87 6.59,-4.6 21.22,1.97 27.69,5.62 7.68,4.31 15.62,7.9 22.98,11.93 30.94,16.99 57.88,34.52 84.89,56.18 3.63,2.91 6.54,5.26 10.24,8 6.44,4.81 22.62,21.61 28.26,23.09 -0.1,1.51 -0.91,6.33 -0.91,6.55 -0.25,8.52 7.3,2.58 2.09,12.23 -3.25,0.95 -7.88,-3.22 -13.56,-1.56 -3.01,0.87 -9.7,5.02 -14.77,6.58 1.53,7.94 4.07,3.71 2.22,7.69 -2.4,5.16 -16.98,-5.3 -23.08,-1.88 1.26,4.13 -0.17,1.12 4.09,4.25 6.83,4.97 1.49,-3.3 6.44,5.93 -8.17,0.44 -19.64,-2.54 -22.73,-10.75l-0.37 -5.83c0.02,-0.3 0.21,-0.68 0.23,-1.38 0.03,-0.71 0.24,-0.93 0.27,-1.4 -5.48,-3.01 -6.48,-2.01 -10.15,-7.06 16.2,0.76 40.88,14.92 52.25,-1.23 -2.14,-8.46 -6.07,-8.52 -15.2,-11.78 -6.75,-2.42 -11.79,-5.79 -18.65,-8.05 -8.34,-2.73 -16.33,-2 -23.01,-5.54 -9.57,-5.05 -9.71,-0.66 -22.6,-3.71l8.73 -3.76c-4.51,-2.18 -5.77,-2.51 -10.77,-3.86 -20.3,-5.5 -10,-1.31 -17.4,0.28 -1.56,0.33 -6.55,-3.71 -17.93,-3.17l-3.98 2.17c-2.32,0.12 -4.73,-0.13 -7.64,0.56 -0.95,2.28 -0.33,1.77 -0.33,2.26l0.33 0.73c-26.62,2.38 -16.17,-0.59 -40.89,13.58l-0.6 -3.89c-4.76,3.06 -5.49,1.95 -10.84,6.36 -3.21,2.65 -8.11,3.62 -10.24,7.42 6.47,-4.05 6.35,-3.42 15.11,-3.86 -8.55,15.82 -23.09,13.17 -20.09,28 -6.05,1.51 -7.27,2.26 -7.73,2.67 -0.27,0.23 -0.75,1 -0.98,1.27 -9.09,11.05 -9.39,6.09 -17.71,11.17 -3.69,2.25 -0.69,1.59 -6.93,4.66 -2.44,1.21 -4.34,1.75 -6.94,3.19 -17.49,9.69 -9.44,36.32 1.84,41.13 9.6,4.07 15.36,-3.13 22.64,-6.84 3.39,-1.73 3.68,-1.05 7.05,-3.14 3.82,7.28 5.04,13.13 10.32,19.93 7.04,9.09 2.38,7.99 -8.87,11.23 2.55,9.55 1.34,2.83 4.74,8.19 -5.93,-1.85 -2.14,-0.65 -5.41,-3.31 -3.37,-2.75 0.63,-0.67 -5.39,-3.89 2.35,-2.63 3.31,-3.07 6.27,-4.85 -0.31,-0.32 -0.82,-0.68 -1.02,-0.88 -3.75,-4.05 -2.59,-3.55 -3.18,-8.18 -0.05,-0.31 -0.15,-0.97 -0.19,-1.23l-0.62 -2.5c-16.15,8.62 -18.96,8.41 -12.05,29.45 1.99,6.05 3.42,-0.95 0.48,6.02 -4.97,2.3 -3.74,-0.48 -12.15,1.03 -21.94,3.98 -9.59,6.27 -22.53,17.46 -5.16,4.47 -10.83,5.57 -13.62,7.81 -6.26,5.01 1.96,3.43 -10.79,11.06 -7.54,4.53 -5.81,4.91 -13.98,0.49l-3.32 9.27c-9.69,0.91 -8.73,-3.57 -21.31,1.78 4.57,10.01 13,5.09 21.56,17.25 4.75,6.72 5.46,14.7 2.79,23.11l-3.34 5.76c-4.19,1.49 -21.66,-0.27 -27.89,-0.85 -20.4,-1.88 -11.11,-1.27 -26.98,3.42 3.1,14.48 6.58,25.24 -2.88,37.63 2.31,10.1 7.5,3.26 3.33,19.23 20.34,-3.1 12.88,-1.6 23.19,8.22 7.73,-1.22 -0.76,0.66 6.77,-3.31 3.83,-2.02 1.76,-1.67 6.58,-2.44 5.81,-0.9 9.54,1.13 14.07,-1.56 7.5,-4.44 11.13,-13.43 17.68,-15.97 -3.17,-5.52 -5.49,-5.82 -1.18,-12.22 7.31,-10.88 11.15,-9.42 20.01,-15.19 7.29,-4.76 2.57,-4.66 3.24,-10.87 1.34,-12.4 16.67,-2.29 22.41,-2.73 2.68,-0.22 14.63,-9.51 19.95,-12.03 14.86,5.76 10.59,17.82 27.74,27.01l7.06 3c0.31,0.17 0.7,0.46 1,0.65l4.68 3.41c4.92,3.52 11.92,7.46 12.03,14.32 0.2,12.16 -15.56,7.92 -22.44,8.86 -4.78,0.64 -0.61,0 -3.1,1.12l-1.66 1.32c2.68,2.62 15,10.04 20.14,10.7 2.24,-6.51 -0.07,-4.35 1.59,-8.54 3.13,-7.91 0.4,-1.58 4.35,-3.48 4.22,-2.02 6.36,-6.83 9.38,-10.29l-1.65 -2.4c-0.87,-1.47 -6.07,-7.1 0.67,-8.75l9.4 2.78c0.1,-0.28 0.61,0.01 0.86,-0.16 0.48,-4.45 -4.9,-6.53 -9.6,-8.83 -8.79,-4.31 -7.9,-1.58 -7.8,-8.41 -19.43,-0.49 -11.25,-8.29 -20.62,-16.2 -5.26,-4.44 -14.12,-11.37 -0.5,-18.09l7.4 9.37c10.1,9.22 15.07,14.11 27.72,18.87 13.76,5.17 8.94,6.26 10.47,18.25 0.75,5.89 2.58,10.85 9.51,13.35 -0.7,5.24 -1.27,5.55 -1.88,9.84l4.49 -1.88c0.07,-0.28 0.49,-0.13 0.74,-0.12l4.71 13.96 10.87 2.79 -2.17 -7.78 6.19 -3.33c8.05,-5.48 2.5,-7.13 -1.51,-11.67l-2.28 -2.74c-3.49,-4.55 -4.23,-5.3 -4.84,-10.77 9.25,3.44 1.57,3.59 10.02,4.84l0.61 -7.72c7.96,0.96 7.05,-1.76 17.79,2.12 -3.28,4.1 -3.79,10.68 -3.57,13.02 4.05,1.19 3.78,-0.82 5.38,-3.37 0.11,5.34 -0.43,1.7 1.06,6.29l-6.55 3.08c-0.18,-0.35 -0.79,0.32 -1.14,0.55 3.83,2.52 3.51,1.95 9.64,2.55 -0.36,0.43 -0.86,0.9 -1.19,1.2 -0.32,0.28 -0.79,0.79 -1.17,1.11l-5.13 3c5.34,-0.48 10.61,-2.46 12.8,7.31l-0.09 0.66c13.07,0.3 11.32,7.86 18.19,4.14 5.94,-3.21 1.34,-10.89 15.25,-0.51 8.07,6.01 11.58,-0.04 15.53,-2.34 5.76,-3.39 0.72,-1.01 6.65,-0.49 4.2,0.38 3.23,-0.18 6.94,-1.58 -4.74,13.31 0.96,13.64 -3.44,25.55 -3.06,8.27 -5.58,18.55 -9.97,24.86 -18.22,5.11 -15.3,-9.11 -32.43,1.11 -6.52,3.89 -6.83,2.12 -14.9,-0.63 -5.81,-1.96 -12.46,-2.45 -17.67,-4.11l-7.65 -3.39c-7.81,-2.48 -14.86,-9.32 -22.1,-7.98 -6.4,1.19 -10.77,4.28 -11.28,9.29 -1.06,10.45 5.72,4.68 -4.37,14.38 -6.86,-1.07 -6.23,-3.69 -13.16,-6.58 -5.62,-2.34 -8.82,-1.37 -14,-4.16 -6.05,-7.38 1.29,-5.38 -8.41,-10 -8.89,-4.27 -17.58,-1.03 -25.16,-8.22 -10.05,-9.54 1.57,1.32 -8.89,-4.02 1.86,-9.71 4.57,-1.43 7.09,-10.78 1.61,-5.92 -1.61,-5.46 -3.88,-10.67l4.38 -6.68c-4.28,-1.59 -2.83,1.48 -6.74,-1.15 -7.74,-5.2 -5.29,1.68 -18.56,0.91 -7.63,-0.44 -6.27,-0.68 -13.45,0.95 -8.48,1.93 -7,-0.91 -16.32,0.16 -14.45,1.65 -21.17,4.75 -32.92,10.26 -5.07,2.39 -6.79,5.77 -13.82,5.19l-12.63 -0.31c-6.04,-0.46 -5.47,-5.14 -11.22,-5.49 -9.2,13.53 -0.34,12.89 -17.5,21.78 -7.49,3.9 -13.55,14.91 -13.51,23.87 0.12,25.34 -18.91,20.27 -25.71,29.69 -4.43,6.16 -0.13,3.59 -7.6,10.93 -5.6,5.48 -3.33,6.07 -6.23,13.68 -2.26,5.94 -5.15,6.17 -7.88,11.8 -2.56,5.31 -4.33,9.66 -6.43,13.71 -7.5,14.46 1.82,8.82 2.78,18.29 0.44,4.4 -1.06,1.43 -0.18,7.75 0.85,6.14 3.13,6.49 1.91,14.93 -1.46,10.08 -3.7,20.24 -10.34,26.79 9.87,7.78 1.43,17.58 8.36,24.77l17.64 18.83c8.02,9.17 4.74,18.7 12.38,23.93 6.24,4.26 4.86,2.47 10.75,7.57 5.17,4.48 4.92,3.46 8.75,7.92 22.48,26.12 22.08,-3.18 53.57,6.23 7.06,2.11 5.3,2.47 12.31,-0.91 51.53,-24.85 39.58,-8.36 53.33,7.54 6.7,-0.65 18.27,-4.32 23.32,0.4l5.35 6.52c2.31,5.27 1.28,8.89 -0.08,14.52 -1.25,5.2 -1.5,7.61 -1.97,11.82 -1,9.04 -4.39,8.01 -4.13,15.07 0.45,12.16 17.58,26.13 23.33,36.8 2.75,7.58 10.21,28.27 8.85,35.01 -2.68,13.36 11.86,19.66 -0.02,35.02 -5.86,7.58 -5.08,8.41 -7.07,17.8 -8.02,37.81 -4.84,22.04 6.75,53.85 2.12,5.82 6.6,12.94 7.84,17.11 1.51,5.07 0.66,13.98 2.1,21.39 1.46,7.46 1.49,13.81 3.43,21.26 1.73,6.65 22.72,38.19 19.93,50.37 -1.26,5.51 -2.86,-0.25 -0.93,7.01 3.43,12.86 1.25,7.55 4.5,9.27 12.87,6.87 1.04,5.63 14.15,1.8 7.36,-2.14 13.02,-4.28 20.54,-3.95 7.76,0.33 4.28,1.72 12.18,-1.26 2.5,-0.96 0.28,-0.19 3.55,-1.38 0.5,-0.19 2.02,-0.67 2.52,-0.86 13.79,-5.18 17.61,-14.68 22.07,-19.51 15.99,-17.35 6.62,-10.24 13.56,-19.5 7.51,-10.01 8.21,-3.03 12.22,-21.29 2.9,-13.23 -4.55,-12.76 9.99,-19.8 12.05,-5.81 10.51,-5.7 11.67,-18 1.3,-13.77 -3.66,-18.55 -4,-26.46l20.68 -23.34c10.35,-9.11 14.24,-2.75 23.53,-19.53 4.72,-8.53 1.6,-24.17 2.35,-34.99 0.9,-13.06 3.05,-5.23 -3.37,-15.7 -2.8,-4.58 -3.35,-11.34 -4.07,-16.87 1.56,-0.98 2.07,-1.18 4.22,-2.27l-3.29 -7.92c-3.11,-16.32 -8.54,1.41 4.31,-28.41 11.67,-27.09 4.58,-4.7 15.34,-22.77 18.55,-31.15 29.64,-27.59 44.27,-48.71l25.54 -49.16c2.43,-6.9 7.16,-15.69 2.62,-23.72 -7.55,1.04 -0.19,-0.29 -6.99,2.86 -9.27,4.29 -13.54,2.52 -20.52,4.7 -5.49,1.7 -19.93,7.16 -23.94,5.34 -6.13,-5.15 -3.93,-5.99 -10.1,-11.46 6.05,-3.27 3.6,1.66 3.57,-8.13 12.48,0.79 8.5,-0.21 16.73,-4.85 2.86,-1.61 11.84,-3.74 16.14,-5.61 3.88,-1.66 4.34,-1.23 8.06,-3.51 17.73,-10.83 10.41,-4.44 20.39,-9.56 10.97,-5.61 0.74,-6.07 9.94,-11.54 4.42,-2.62 12.09,-3.2 15.02,-4.26 8.26,-3.02 0.34,-0.15 5.2,-5.32 3.75,-3.99 3.81,-1.03 8.4,-6.49 0.36,-0.42 1.15,-2.08 2.07,-2.94 3.38,-3.19 1.74,-1.93 7.3,-2.84 -2.04,-13.32 0.9,-10.42 6.44,-16.58 4.26,-4.75 5.87,-7.96 7.84,-14.62 -11.64,-9.5 2.16,-5.16 -17.51,-13.17 -9.77,-3.97 -8.06,-9.94 -11.18,-18.89 -8.35,5 -8.3,12.94 -18.79,15.4l-18.35 -2.99c-2.91,-2.37 -0.65,0.35 -3.34,-3.32 -3.3,-4.49 -3.17,-7.02 -4.42,-11.95 -1.15,-4.53 -0.02,-4.18 -6.33,-10.45 -8.11,-8.06 -6.24,-10.84 -11.55,-18.9 3.06,-2.36 4.57,-5.29 8.07,-6.07 13.09,-2.89 11.84,15.37 20.86,20.92 4.64,2.85 4.18,2.24 8.92,5.87 4.01,3.08 4.76,3.8 9.53,5.02 11.96,3.07 12.43,-3.35 20.01,-4.29l4.14 12.27c40.01,10.85 36.12,4.6 68.9,4.11 16.41,24.09 12.51,11.43 14.92,41.35 8.81,109.31 -12.34,226.85 -58.37,323.28 -12.31,25.81 -24.47,49.16 -38.94,72.31 -12.29,19.66 -55.18,79.13 -71.91,94.05l-85.86 78.49c-87.04,67.47 -203.41,114.78 -313.89,127.6 -96.99,11.26 -199.4,2.3 -290.78,-30.09 -15.59,-5.52 -68.9,-23.97 -75.83,-33.3 1.05,-9.06 1.29,-1.07 3.82,-7.6 2.32,-5.98 -0.39,-2.77 1.72,-8.06 3.84,-9.62 7.52,1.59 5.29,-14.46 -6.44,-3.69 -25.39,-8.65 -10.44,-18.72 4.14,-2.78 4.09,4.54 4.6,-5.8 0.2,-4.06 -1.43,-3.69 -1.17,-6.76 0.75,-8.99 7.18,-1.74 7.04,-11.82 -5.05,-2.67 -3.69,0.43 -9.78,-1.33l-4.23 -11.07c8.36,-0.06 9.52,6.35 18.3,0.86l-0.56 -16.05c16.37,0.2 30.43,-1.92 29,-19.26 -3.41,-5.86 -1.59,-0.43 -4.5,-5.75 -2.93,-5.34 0.36,-2.13 -2.93,-7.03 -3.26,-4.86 -7.06,-2.42 -9.26,-9.21l14.16 5.78c20.12,7.78 18.45,-11.08 30.43,-27.46 4.51,-6.14 3.33,-8.35 5.54,-16.03 2.56,-8.97 5.89,-6.6 6.87,-14.52 1.67,-13.55 -10.48,-16.79 6.03,-32.36 5.67,-5.36 5.08,-2.03 13.85,-7.92 5.47,-3.68 7.34,-3.83 18.61,-3.81l11.97 -26.61 1.73 -58.64c4.56,-7.41 5.86,-4.74 9.38,-14.96 4.78,-13.87 24.58,-28.68 15.25,-44.79 -3.3,-17.92 -2.24,-12.36 -15.31,-16.54 -5.55,-1.79 -8.65,-7.9 -15.06,-13 -9.86,-7.89 -7.25,-4.93 -20.96,-6.83 -11.92,-1.67 -8.16,-5.46 -21.19,-4.06 -3.69,-10.15 -9.84,-12.02 -19.83,-15.09 -17.04,-5.22 -9.12,-3.45 -24.04,-10.85 -1.91,-19.79 1.32,-5.02 -6.74,-18.13 -4.48,-7.27 -0.64,-10.82 -6.19,-17.12 -19.53,-22.15 -32.45,-7.15 -48.94,-20.64 -9.18,-7.52 -3.26,-9.48 -17.4,-17.28 -8.26,-4.53 -1.24,0.97 -5.73,-5.86 -5.34,-8.11 -6.93,-4.42 -13.95,-9.48 1.72,-3.94 -1.04,-1.4 5.59,-3.77 -15.25,-1.14 -13.31,-0.32 -24.42,5.2 -12.88,-3.36 -2.98,-6.42 -21.57,-3.38 -0.32,-0.37 -0.63,-0.91 -0.82,-1.19 -6.36,-9.11 -9.03,-6.09 -15.48,-13.86 -2.07,3.42 -0.93,13.31 -13.36,9.08 0.57,-10.68 5.64,-0.38 4.06,-10.79 -7.97,-0.72 -4.77,0.49 -8.14,3.69 -6.69,6.33 -15.89,5.99 -23.11,10.02 -1.37,5 -1.62,9.88 -3.92,12.78l-6.81 8.41c-0.1,-0.26 -0.4,0.71 -0.6,1.07 -17.52,-23.5 -21.85,-5.85 -31.4,-5.39 -7.06,-1.95 -18.91,-11.65 -20.34,-20.19 -0.82,-4.94 3.79,-25.98 3.57,-34.28 -18.65,-14.69 -23.27,-2 -42.26,-7.11 5.2,-4.78 7.55,-16.05 9.65,-23.91 1.43,-5.34 1.42,-9.55 3.42,-13.42 2.19,-4.24 5.82,-4.6 2.97,-10.57 -6.9,-1.52 -18.19,0.28 -25.05,3.86 -9.65,8.76 7.63,15.78 -26.25,23.4 -8.23,1.83 -16.1,-2 -20,-9.05 -9.58,-17.32 -12.8,-30.32 -4.99,-49.26 3.79,-9.19 1.08,-6.42 1.83,-14.98 0.9,-10.3 8.65,-11.19 15.68,-15.79 9.05,-5.93 9.36,-10.12 24.26,-7.07 11.32,2.33 4.06,3.48 12.72,3.88l11.57 0.2c-2.82,-6.61 -4.01,-1.75 0.12,-10.85 4.92,-0.25 11.78,-0.6 16.72,-0.72 9.45,-0.21 7.27,2.06 13.15,6.03 5.03,-1.56 3.85,-2.19 8.3,-3.92 12.61,10.08 4.93,11.61 8.06,23.29 1.8,6.71 5.34,11.13 9.08,15.93 1.92,2.44 1.85,2.52 3.76,3.95 4.9,-2.85 2.29,1.13 4.86,-5.93 6.79,-18.61 -14.2,-36.76 -1.24,-54.32l21.14 -16.92c2.31,-1.11 0.79,-0.01 3.35,-1.57l20.38 -12.74c-0.08,-12.3 -6.83,-14.42 -0.86,-25.01l0.67 9.94c3.97,-10.76 9.63,-6.8 5.71,-18.15 4.9,1.53 4.68,2.68 8.56,-2.61 7.13,-9.74 1.16,-6.52 13.35,-11.77 6.22,-2.68 3.8,-2.78 7.33,-4.48 7.47,-3.59 9.55,0.25 14.46,-6 -2.92,-1.55 -3.18,5.97 -5.24,-3.33 -2.13,-9.56 11.1,-13.42 17.77,-16.45l29.45 -12.88c-1.42,5.83 -3.47,3.91 -7.51,6.7 -7.39,5.1 -3.93,13.38 4,8.91 7.47,-4.24 7.39,-6.37 16.93,-9.78 8.74,-3.1 17.6,-7.53 25.01,-11.85 -0.48,-0.81 -1.76,-2.57 -1.89,-2.8 -0.16,-0.27 -0.42,-0.73 -0.58,-1.02l-2.38 -5.22c-1.77,1.69 -3.89,3.2 -5.77,5.41l-3.52 4.99c-0.11,-0.26 -0.44,0.71 -0.67,1.05 -5.85,-0.1 -9.6,0.73 -14.94,-2 -3.79,-1.94 -6.36,-4.95 -5.84,-9.56l1.93 -8.39c3.71,-7.82 4.26,2.95 5.55,-8.49 -15.25,-5.25 -28.55,5.6 -39.77,10.16l15.39 -11.32c5.8,-2.88 1.65,-3.26 8,-6.98 6.77,-3.93 29.46,-2.7 36.4,-2.61 20.51,0.33 16.43,-8.08 29.13,-11.65 14.24,-4.02 17.36,-3.78 18.38,-20.17l-9.8 -3.15c-1.15,-4.35 0.21,-2.47 0.29,-5.4 0,-0.27 0.14,-0.41 0.09,-0.61 -4.87,-2.46 -12.14,-3.47 -16.53,-6.33 -1.45,-0.96 -4.21,-4.12 -5.15,-6.94 -0.83,-2.45 -0.86,-5.65 -1.49,-8.4 -2.17,-9.45 -11.42,-15.21 -14.81,-27.97 -9.61,4.72 -8.81,11.19 -17.26,16.39 -10.06,6.18 -12.94,2 -20.31,-5.25l4.51 -13.92c-12.71,2.6 -11.19,-2.1 -18.52,-7.09 -7.99,-5.46 -10.3,-0.83 -21.53,-1.56 -16.67,-1.08 -15.13,-2.97 -18.54,12.81l-0.28 5.69c-0.43,9.26 -4.67,7.72 -10,14.63 1.35,1.24 1.11,0.8 3.15,2.2 13.97,9.52 4.86,21.39 -7.32,28.01 -6.35,3.46 -5.88,2.05 -12.44,4.21 -1.19,8.46 6.57,23.16 -4.49,28.26l-1.83 0.72c-3.9,1.57 1.66,0.06 -4.78,1.88 -19.68,-22.78 -5.37,-16.01 -7.6,-32.59 -12.51,-0.88 -23.4,0.04 -33.77,-6.28 -12.14,-7.39 -15.85,-8.91 -30.95,-5.52l-1.15 -14.01 -9.79 -1.9c3.73,-16.06 17.71,-26.17 30.89,-32.64 11.64,-5.7 9.17,-7.39 15.62,-10.82 5.48,-2.9 8,-1.1 13.86,-4.44 7.85,-4.48 10.7,-10.84 19.65,-15.48 -2.97,12.83 -12.93,18.55 -14.81,20.5 17.29,-2.4 7.06,3.35 13.07,2.73 5.15,-2.52 9.86,-6.28 14.94,-8.9 7.98,3.22 10.69,6.67 19.39,0.91 -0.98,-0.94 -1.36,-0.79 -3,-1.85 -7.1,-4.51 -2.52,-3.16 -9.65,-6.43 -17.86,-8.22 -5.22,-3.32 -14.08,-8.94 -2.07,1.73 1.5,1.1 -5.86,1.98 0.3,-0.42 1.05,-2.29 1.78,-2.8l-4.31 -2.11c7.53,-0.6 4.78,-1.68 11.32,1.23 7.36,3.3 -1.35,1.76 7.73,4.41 0.87,-1.93 5.3,0.81 -3.09,-4.84l11.51 -3.63c4.36,-2.42 7.23,-4.22 12.09,-6.13 -2.83,-13.4 3.06,9.77 -1.78,-4.33 -4.23,-12.28 8.89,-2.46 5.87,-13.44 -1.46,-5.33 0.98,0.86 -4.06,-2.9 9,-7.79 8.67,4.45 20.98,-3.37l10.56 -3.14c1.69,4.3 1.25,0.6 1.48,4.22 0.18,2.72 -2.27,-1.35 -0.45,3.52 5.57,-2.21 3.52,-5.37 9.22,-1.23 -3.89,2.44 -2.98,0.47 -7.13,3.32 3.99,2.19 2.36,-3.31 14.22,5.94l-4.54 0.73c-3.36,-4.36 -6.46,-2.44 -12.35,-1.69 -2.57,3.76 -3.6,3.38 -4.78,8.29 9.6,3.39 13.96,-2.67 15.6,-4.68l1.53 -1.92 8.08 1.81c2.32,-7.17 -0.86,7.39 -0.04,-4.55 0,-0.1 -0.02,-0.53 0.1,-0.76 6.12,1.95 4.93,1.92 6.32,8.45 -4.79,4.2 -9.94,7.75 -16.93,9.92 2.06,4.11 1.09,1.88 2.05,3.52 1.68,2.88 0.31,-0.12 1.58,2.73 -12.95,1.79 -23.23,1.52 -27.57,4.09 -3.09,1.82 -3.96,3.21 -5.64,6.29 11.48,7.8 18.9,-6.56 34.76,3.52 1.51,0.96 1.35,1.03 3.27,1.91 4.31,1.95 1.67,0.14 2.3,1.27 6.82,12.08 5.45,4.79 13.1,6.78 3.11,0.8 21.03,7.41 23.41,2.8 0.4,-3.57 -11.56,-8.78 -15.05,-13.08 11.58,3.06 17.71,7.32 24.87,10.11 1.03,-2.53 -2.54,-3.79 6.16,-9.99 -0.76,-8.67 -5.3,-8.77 -12.61,-13.52 -3.98,-2.57 -1.44,-2.61 -6.15,-5.45 3.3,-1.22 1.84,-1.05 3.36,-2.06 4.49,-2.97 -3.48,0.48 4.26,-2.86 12.8,5.51 1.3,6.18 18.26,10.9 2.25,-2.42 2.51,-4.07 4.08,-5.31 2.49,-1.94 1.95,-0.31 5.32,-2.18 2.41,-1.33 8.38,-7.83 9.62,-9.39 -5.12,-4.41 -21.84,-9.37 -28.06,-10.95 -6.02,-1.54 -2.03,-2.63 -9.33,-2.34 -1,-9.62 -0.36,-4.04 7.99,-6.62 -6.7,-6.89 -1.75,-0.16 -2.29,-7.17 -0.66,-0.35 0.75,-4.41 -7.25,0.18 -0.21,-1.45 0.46,0.59 0.52,-1.47 0.1,-3.62 1.91,0.76 -0.52,-3.38 -21.75,-2.95 -8.73,-3.81 -18.61,-6.03 -6.25,-1.4 -5.58,1.03 -11.86,-1.52 -21.77,-8.85 -6.19,-16.17 -32.8,-13.05 -9.29,1.1 -4.18,-2.17 -8.74,5.01 -2.31,-8.17 -9.86,-2.38 -24.24,1.04 -3.54,-7.52 -4.74,-4.27 0.55,-7.66 9.94,-6.38 26.88,-1.36 36.21,-7.31 5.24,-3.36 1.02,0.98 4.16,-5.12 -4.61,-3.74 -11.86,-2.78 -18.75,-2.65l5.71 -6.39zm-32.95 128.78c6.62,-1.15 5.21,-0.19 7.36,-7.34 -5.44,1.3 -6.99,1.51 -7.36,7.34zm562.12 181.05c7.41,1.81 3.67,2.93 8.21,-1.09 -0.76,-1.62 -1.44,-3.07 -2.73,-3.24 -4.42,-0.53 -4.41,2.17 -5.48,4.33zm-571.04 -192.01l-10.76 1.36c-1.22,1.29 -7.38,6.94 -1.28,6.56 5.27,-0.35 9.09,-3.99 12.04,-7.92zm93.96 108.63c6.35,3.18 9.39,7.42 17.94,4.97 -5.15,-6.05 -13.13,-6.41 -17,-5.46 -0.2,0.06 -0.63,0.31 -0.94,0.49zm-135.24 278.81c3.37,3.44 4.43,6.33 15.64,3.32 -3.84,-5.51 -8.53,-7.09 -15.64,-3.32zm834.92 -152.68c4.22,2.87 5.34,3.89 10.55,0.19 4.97,-3.54 -0.21,0.93 3.51,-4.64 0.16,-0.25 0.45,-0.73 0.6,-0.97 2.14,-3.16 0.25,-0.3 1.54,-2.02 -10.88,4.85 -12.22,0.32 -16.2,7.44zm-176.8 -70c0.6,4.46 1.7,7.17 4.44,10.26l-7.11 4.48c2.77,8.67 1.41,7.45 1.02,16.58 5.18,0.72 0.88,0.26 3.84,-0.07 3.86,-0.46 -2.66,-0.54 5.7,-0.9 3.08,-26.25 -2.36,-11.37 -1.06,-25.94 0.41,-4.54 0.6,-4.3 0.02,-9.56 -2.37,3.75 -3.1,1.91 -6.85,5.15zm-606.17 228.39c4.43,-5.13 4.8,-5.57 12.31,-6.33 12.83,-1.27 5.97,6.31 11.62,-2.18 -5.25,-5.03 -14.19,-11.26 -24.82,-11.19l-1.61 14.76c2.4,9.55 -0.24,0.79 2.5,4.94zm-100.54 -35.97c10.68,0.9 12.06,-6.46 22.53,-6.97 3.69,6.74 -14,-2.24 16.16,7.75 7.24,2.39 6.94,-0.03 9.24,4.42 3.25,6.25 -2.12,2.69 -4.87,2.8 5.77,2.71 7.52,1.91 15.02,1.98l-4.43 7.46c6.03,-0.88 8.69,-1.15 14.57,-1.11 4.6,0.02 7.85,0.12 12.39,-2.66 -5.43,-5.18 -11.86,-6.4 -19.26,-10.52 -4.39,-2.44 -15.48,-18.13 -41.77,-14.32 -16.73,2.42 -11.08,5.8 -19.58,11.17zm585.78 -301.09l-10.8 0.69c-0.02,7.15 -1.44,6.13 2.28,9.94l2.9 2.67c-10.4,7.67 -7.84,7.08 -7.95,10.81 9.47,5.26 17.36,-1.5 28.76,-4.77 2.96,-7.08 1.58,-4.85 2.61,-11.53 1.28,-8.26 2.71,-4.24 4.72,-10.04l-3.88 -5.69c-12.43,-1.15 -17.72,-2.58 -18.64,7.92zm-369.14 69.13c0.36,0.21 0.99,-0.07 1.17,0.39 0.18,0.43 0.93,0.29 1.18,0.32 1.85,0.3 1,0.3 3.62,0.4l23.17 -0.18 -4.85 5.11c-0.21,0.21 -0.67,0.6 -0.97,0.95 6.13,-0.55 6.77,-2.83 11.32,-5.08 7.15,2.68 -1.09,-0.18 3.27,3.75l5.31 2.7c1.13,-1.32 8.65,-9.3 2.02,-11.82 -1.78,-0.67 0.84,0.04 -1.5,-0.08l2.96 -4.67c-5.99,-3.3 0.54,3.63 -5.5,-11.24l-9.61 2.31c-5.01,-4.66 3.35,-0.01 -6.73,-6.09l9.12 -12.34c-13.58,2.34 -13.98,8.64 -29.06,26.86l-1.06 2.83c-0.04,0.11 -0.11,0.54 -0.16,0.66 -2.01,4.86 -0.37,-1.33 -3.7,5.22zm292.92 -168.49l-5.12 -6.73c-1.4,-1.14 -4.16,-2.32 -6.84,-1.89 -4.06,0.63 -8.24,5.68 -12.25,7.61l11.74 2.57 -9.37 4.13c1.7,0.86 12.38,-0.03 11.61,4.95 -1.21,7.8 8.07,-6.75 -2.86,3.44 -0.23,0.22 -0.8,0.54 -1.16,0.86 23,-0.2 17.44,6.87 36,0.22 9.13,-3.27 24.03,-6.95 27.37,-14.28 -2.09,-5.29 -9.71,-10.08 -14.08,-10.81 -5.76,-0.96 -4.4,1.27 -10.12,2.78 -4.27,1.14 -8.34,-0.23 -13.1,0.72 -0.99,0.19 -2.08,0.49 -3.08,0.73l-5.71 2.21c-4.75,3.77 -0.17,-0.18 -3.03,3.49zm113.75 59.97l-10.99 0.57c-1.91,3.51 -2.62,5.3 -4.72,7.32 -5.37,5.18 0.31,-1.48 -6.53,3.11 3.87,5.52 1.14,4.67 3.13,10.72 0.69,2.11 3.03,-3.83 0.2,2.16 -0.09,0.18 -0.39,0.61 -0.5,0.8 -0.15,0.24 -0.55,0.72 -0.72,0.97l-1.8 2.29c10.97,-1.63 1.88,5.57 12.44,-0.97 -1.23,6.91 -0.76,3.45 -3.07,8.09l11.18 0c0.9,8.27 2.75,3.45 2.57,11.91l-10.35 1.06 0.59 4.78c0.09,0.23 0.32,0.71 0.42,0.94l1.64 3.33 -8.31 4.57 4.7 2.28c1.59,0.37 4.9,0.67 7.92,0.89l-16.2 13.84c12.27,0.14 14.11,-5.71 24.98,-5.5 5.46,0.1 19.53,-0.67 24.95,-4.21 1.88,-2.12 -0.4,-1.47 -0.25,-4.06l0.53 -2.66c1.86,-4.45 2.64,0.13 3.84,-7.92 -3.9,-3.7 -2.79,-3.06 -9.93,-2.72 -1.35,-13.32 -8.43,-14.32 -10.84,-17.68 -3.82,-5.34 1.4,2.58 -1.17,-2.16 -1.39,-2.56 -1.23,-7.17 -11.01,-8.66 4.82,-1.54 1.14,0.74 4.79,-4.77 2.12,-3.22 3.39,-5.84 4.74,-9.97l-14.42 -0.26c0.63,-2.89 6.13,-5.67 10.13,-14.33 -6.11,0.63 -5.01,2.49 -7.94,6.24zm384.25 676.93c5.93,3.03 -0.99,3.35 4.33,2.51 3.33,-7.55 -0.64,-27.87 -5.21,-34.53 -9.57,8.77 2.85,3.47 -8.41,13.06 -0.36,0.31 -1.4,1.26 -2.1,2.35 -2.76,4.31 -3.1,12.1 -13.92,17.85 -7.86,4.17 -10.04,1.77 -13.95,7.83 -7.39,11.43 0.99,23.41 -3.49,34.26 -7.6,18.41 -9.38,4.93 -7.12,29.15 1.09,11.65 1.64,23.26 16.42,16.95 11.75,-5.03 11.23,-13.72 15.42,-26.11l16.33 -48.4c3.82,-10.7 1.57,-4.71 1.7,-14.92zm-1023.97 -733.13c-5.32,1.69 -23.38,25.64 -27.71,31.67 -30.76,42.9 -44.17,60.34 -70.21,112.34 -91.56,182.82 -96.33,414.7 -11.02,595.15 27.39,57.93 57.44,108.11 92.24,150.04 18.76,22.62 37.38,44.49 57.81,63.34 29.31,27.06 35.21,32.9 66.05,56.72 86.18,66.58 210.66,122.51 350.01,136.24 192.97,18.99 366.68,-40.95 506.35,-152.5 19.71,-15.74 63.48,-56.22 77.8,-73.13 2.65,-3.14 3.87,-5.37 6.58,-8.42l35.08 -42.88c9.04,-12.83 16.88,-22.77 25.27,-36.14 66.13,-105.37 110.12,-221.7 112.25,-373.95 1.01,-72.43 -10.57,-146.35 -31.11,-211.21 -18.29,-57.74 -47.51,-124.35 -77.65,-167.36 -32.72,-51.54 -75.32,-101.88 -119.12,-141.89 -30.53,-27.91 -81.71,-65.26 -116.05,-84.77 -98.96,-56.25 -227.58,-100.82 -364.65,-95.01 -133.98,2.72 -264.4,43.53 -372.8,116.72l-18.28 13.91c-8.13,3.03 -40.46,29.57 -48.54,37.01 -18.64,17.17 -64.01,55.65 -72.3,74.12zm378.28 -153.04c6.51,2.72 15.03,3.52 19.69,8.09 -13.34,-1.45 -20.97,-5.13 -35.4,-3.93 -1.28,2.79 0.98,3.19 0,5.22 -7.75,-1.15 -5.57,-2.3 -14.94,-1.99 -1.58,3.83 0.71,0.78 -1.66,4.72 -0.22,-0.32 -0.47,-1.25 -0.58,-0.99 -0.11,0.27 -0.49,-0.78 -0.66,-0.92 -7.04,-6.29 -31.33,1.81 -40.33,3.91 -12.11,2.87 -5.6,0.26 -9.88,7.82 -12.64,0.77 -32.45,5.32 -40.58,11.52l13.36 1.39c-2.62,9.42 -18.3,7.99 -26.21,10.39 -8.66,2.65 -21.72,5.24 -28.46,7.99 9.08,10.28 30.06,2 36.75,3.99 -2.56,1.17 -10.29,1.69 -13.39,2.48 -4.07,1.02 -10.93,1.15 -15.17,3.45 0.08,1.71 3.66,4.31 8.55,6.06 18.7,6.68 50.98,-11.64 67.22,2.76l4.21 4.12c1.96,2.28 2.16,1.8 2.21,5.55 0,0.41 -0.35,2.03 -0.37,3.01l1.58 8.91c1.57,7.74 -1.71,5.43 1.92,12.12 8.27,0.36 7.7,1.14 11.71,-3.29 4.34,4.26 5.92,3.26 8.59,8.46l-15.73 2.02c-2.37,2.28 -3.41,0.84 -4.58,5.24 -2.52,9.46 14.28,5.33 18.19,1.76 -0.05,-1.67 1.05,0.75 -1.79,-1.52l-4.06 -3.32c4.43,1.32 17.55,3.31 9.15,11.49 -6.21,6.06 -20.82,-5.56 -21.27,22.84 -0.19,11.62 3.39,5.4 6.17,15.97 1.5,5.65 -0.73,2.21 2.91,8.84 3.68,6.66 8.84,15.86 14.05,20.75 5.72,5.34 10.72,1.82 18.04,5.13 12.88,5.83 18.14,13.07 28.78,-14.83 3.85,-10.11 10.42,-8.75 14.5,-18.3 1.88,-4.41 2.57,-7.36 6.51,-10.38 0.28,-0.21 0.68,-0.51 0.97,-0.73 6.01,-4.3 14.09,-2.8 21.39,-5.14 3.56,-1.13 7.52,-3.7 11.06,-5.4 7.8,-3.81 11.15,-9 17.8,-13.75 8.85,-6.33 50.18,-8.14 73.52,-24.58 -11.99,0.47 -15.96,-2.01 -27.78,-0.48l7.86 -5.95c2.88,-3.14 -2.12,0.01 3.16,-3.56 11.92,6.43 -0.88,7.14 22.15,6.81l-0.64 -10.18c-5.92,-2.88 -16.18,-4.9 -18.64,-11.87 0.33,0.32 0.82,0.35 1,0.93 1.31,4.29 17.47,9.41 16.98,1.27 -0.36,-5.94 0.62,-0.87 -5.53,-5.32 23.97,-1.83 12.76,-6.38 18.44,-8.9 3.47,-1.53 7.03,-2.01 9.75,-2.93l-3.53 -1.61c-0.22,-0.11 -0.75,-0.33 -0.98,-0.45l-5.34 -5.29c3.42,0.59 3.83,1.6 7.27,-0.54 -0.4,-6.59 -2.47,-9.17 -7.26,-12.52 6.37,-2.1 8.46,-0.56 12.8,5.46l3.75 -9.53 -9.46 -1.45 4.76 -4.19 -9.58 -3.24c-4.61,-1.15 0.91,2.19 -2.83,-1.08 5.67,-7.22 0.92,-2.8 9.02,-6.21 12.71,-5.38 1.51,0.83 6,-7.26 10.92,-0.28 5.34,0.5 12.83,-3.53 12.05,-6.46 25,-8.8 36.59,-14.02 -11.48,-4.44 -25.2,-2.55 -35.43,0.34 -7.7,2.17 -11.26,-1.03 -16.68,0.11 -4.67,0.97 -8.19,4.3 -15.5,5.39 6.15,-3.62 6.31,-1.2 8.86,-8 -3.06,-1.24 -0.98,-1.02 -5.48,-1.12 -3.24,-0.07 -3.82,0.3 -6.67,1.26 -3.91,1.32 -4.8,3.95 -9.93,1.51 1.9,-5.72 10.86,-3.99 20.64,-7.68l-40.63 -6.53c-15.12,-0.23 -30.32,0.19 -45.1,1.8l-78.64 11.63z"/>
   <path class="fil0" d="M231.49 5135.37l155.04 0 0 -54.54 -97.46 0 0 -30.84 74.9 0 0 -54.82 -74.9 0 0 -30.55 97.46 0 0 -54.82 -155.04 0 0 225.57zm260.33 -112.79l-67.43 112.31 63.1 0.19 40.4 -62.1 40.5 62.1 63.1 0 -67.77 -112.5 67.82 -112.21 -63.1 0 -40.55 61.86 -40.4 -61.86 -63.1 0 67.43 112.21zm177.72 -57.68l57.44 0 0.57 170.18 61.96 0 -2 -170.18 57.3 0 0 -54.53 -175.27 0 0 54.53zm221.7 170.47l155.04 0 0 -54.54 -97.46 0 0 -30.84 74.9 0 0 -54.82 -74.9 0 0 -30.55 97.46 0 0 -54.82 -155.04 0 0 225.57zm201.27 -225.57l0 225.28 56.54 0 0 -117.97 131.2 117.97 12.37 0 0 -225.28 -56.73 0 0 118.25 -131.48 -118.25 -11.9 0zm254.86 0.85l0 224.43 64.58 0c41.83,0 77.47,-11.04 105.22,-32.88 21.03,-20.13 31.5,-46.83 31.5,-79.29 0,-32.45 -10.42,-59.2 -31.5,-79.42 -22.42,-19.56 -55.63,-32.98 -95.47,-32.98l-4.85 0 0 0.14 -69.48 0zm144.19 111.93c-5.09,37.98 -33.21,57.68 -77.9,57.68l-6.04 0 -0.53 -115.36 14.47 0c39.45,0 70,20.28 70,57.68zm158.26 112.5l0 -224.71 -54.82 0 0 224.71 54.82 0zm54.75 -225.28l0 225.28 56.54 0 0 -117.97 131.2 117.97 12.37 0 0 -225.28 -56.73 0 0 118.25 -131.48 -118.25 -11.9 0zm373.74 -1.15l-3.72 0c-34.64,0 -64.48,11.28 -88.75,33.55 -23.17,22.32 -34.93,49.45 -34.93,80.62 0,31.41 11.76,58.77 34.93,80.71 24.18,22.08 54.06,33.26 88.75,33.26 34.41,0 64.3,-11.28 88.85,-33.45 22.89,-21.8 37.6,-52.63 34.22,-94.94l-0.33 -4.38 -130.11 0 0 49.68 64.34 0c-10.95,15.66 -31.74,27.99 -56.54,27.99 -18.79,0 -34.31,-5.67 -47.35,-17.33 -13.27,-11.66 -19.75,-25.27 -19.75,-41.54 0,-16.28 6.48,-29.89 19.75,-41.45 13.18,-11.66 28.7,-17.32 47.35,-17.32 18.23,0 33.84,6.14 47.4,18.79l3.67 3.38 41.16 -39.07 -3.52 -3.42c-19.94,-18.47 -49.21,-33.65 -85.28,-34.6l-0.14 -0.48zm214.81 56.25l57.44 0 0.57 170.18 61.96 0 -2 -170.18 57.3 0 0 -54.53 -175.27 0 0 54.53zm221.65 170.18l54.82 0 0 -85.09 75.1 0 0 85.09 54.82 0 0 -224.71 -54.82 0 0 85.09 -75.1 0 0 -85.09 -54.82 0 0 224.71zm239.44 0.29l155.04 0 0 -54.54 -97.46 0 0 -30.84 74.9 0 0 -54.82 -74.9 0 0 -30.55 97.46 0 0 -54.82 -155.04 0 0 225.57zm418.49 -225l-55.21 115.73 -55.1 -115.73 -58.49 0 107.84 224.71 11.75 0 108.26 -224.71 -59.05 0zm160.2 224.71l0 -224.71 -54.82 0 0 224.71 54.82 0zm178 -226.43l-6.71 0c-34.73,0 -64.91,11.28 -89.84,33.55 -23.23,22.32 -34.93,49.4 -34.93,80.57 0,31.27 11.7,58.3 34.98,80.52 24.69,21.99 54.86,33.12 89.79,33.22 17.71,0 34.22,-3.05 49.54,-9.19 15.09,-6.28 27.8,-14.75 38.55,-25.41l3.47 -3.47 -39.45 -39.07 -3.71 3.42c-13.42,12.52 -29.22,18.61 -48.25,18.61 -18.9,0 -34.65,-5.57 -47.92,-17.04 -13.42,-11.56 -19.99,-25.17 -19.99,-41.45 0,-16.08 6.57,-29.69 19.99,-41.45 13.23,-11.51 28.93,-17.13 47.92,-17.13 18.7,0 34.5,6.09 48.16,18.61l3.66 3.43 39.5 -39.07 -3.57 -3.48c-19.03,-18.27 -46.68,-32.83 -81.38,-34.45l0.19 -0.72zm122.71 56.25l57.44 0 0.57 170.18 61.96 0 -2 -170.18 57.3 0 0 -54.53 -175.27 0 0 54.53zm226.5 -22.65c-23.17,22.42 -34.88,49.49 -34.88,80.66 0,31.27 11.71,58.3 34.93,80.48 24.37,21.89 50.02,33.02 84.56,33.12 34.51,0 60.16,-11.14 84.62,-33.12 23.32,-22.08 35.12,-49.11 35.12,-80.48 0,-31.26 -11.8,-58.34 -35.08,-80.66 -24.6,-22.27 -50.25,-33.6 -84.66,-33.6 -34.35,0 -60,11.33 -84.61,33.6zm127.78 38.98c13.32,11.66 19.84,25.22 19.84,41.4 0,16.37 -6.52,29.93 -19.84,41.4 -13.33,11.52 -24.7,17.08 -43.17,17.08 -18.74,0 -30.12,-5.56 -43.25,-17.03 -13.28,-11.57 -19.7,-25.18 -19.7,-41.45 0,-16.09 6.42,-29.7 19.7,-41.45 13.04,-11.52 24.41,-17.13 43.25,-17.13 18.56,0 29.94,5.61 43.17,17.18zm177.76 153.85l0 -87.8 66.96 87.8 66.72 0 -53.97 -80.61c10.52,-4.76 16.52,-9.67 23.65,-19.28 10,-13.51 15.14,-28.22 15.14,-43.73l0 -5.62c0,-25.22 -9,-38.59 -23.18,-52.2 -8.33,-7.85 -17.94,-13.71 -28.93,-17.56 -12.66,-3.81 -25.79,-5.71 -39.21,-5.71l-82.14 0 0.14 224.71 54.82 0zm32.27 -117.78l-11.99 0 0 -0.14 -20.42 0 0 -52.26 24.03 0c10.28,0 22.84,2.67 28.7,7.48 5.95,5.33 8.8,11.23 8.8,18.13 0,15.51 -14.04,26.79 -29.12,26.79zm180.34 21.98l0 95.8 61.67 0 0 -95.8 74.38 -128.91 -62.29 0 -42.92 72.33 -42.93 -72.33 -62.15 0 74.24 128.91zm265.82 -97.03c-23.17,22.42 -34.88,49.49 -34.88,80.66 0,31.27 11.71,58.3 34.93,80.48 24.37,21.89 50.02,33.02 84.56,33.12 34.51,0 60.16,-11.14 84.62,-33.12 23.32,-22.08 35.12,-49.11 35.12,-80.48 0,-31.26 -11.8,-58.34 -35.08,-80.66 -24.6,-22.27 -50.25,-33.6 -84.66,-33.6 -34.35,0 -60,11.33 -84.61,33.6zm127.78 38.98c13.32,11.66 19.84,25.22 19.84,41.4 0,16.37 -6.52,29.93 -19.84,41.4 -13.33,11.52 -24.7,17.08 -43.17,17.08 -18.74,0 -30.12,-5.56 -43.25,-17.03 -13.28,-11.57 -19.7,-25.18 -19.7,-41.45 0,-16.09 6.42,-29.7 19.7,-41.45 13.04,-11.52 24.41,-17.13 43.25,-17.13 18.56,0 29.94,5.61 43.17,17.18zm122.99 154.14l57.58 0 0 -85.38 74.9 0 0 -54.82 -74.9 0 0 -30.55 97.46 0 0 -54.82 -155.04 0 0 225.57zm381.41 -226.72l-6.71 0c-34.73,0 -64.91,11.28 -89.84,33.55 -23.23,22.32 -34.93,49.4 -34.93,80.57 0,31.27 11.7,58.3 34.98,80.52 24.69,21.99 54.86,33.12 89.79,33.22 17.71,0 34.22,-3.05 49.54,-9.19 15.09,-6.28 27.8,-14.75 38.55,-25.41l3.47 -3.47 -39.45 -39.07 -3.71 3.42c-13.42,12.52 -29.22,18.61 -48.25,18.61 -18.9,0 -34.65,-5.57 -47.92,-17.04 -13.42,-11.56 -19.99,-25.17 -19.99,-41.45 0,-16.08 6.57,-29.69 19.99,-41.45 13.23,-11.51 28.93,-17.13 47.92,-17.13 18.7,0 34.5,6.09 48.16,18.61l3.66 3.43 39.5 -39.07 -3.57 -3.48c-19.03,-18.27 -46.68,-32.83 -81.38,-34.45l0.19 -0.72zm131.04 226.43l54.82 0 0 -85.09 75.1 0 0 85.09 54.82 0 0 -224.71 -54.82 0 0 85.09 -75.1 0 0 -85.09 -54.82 0 0 224.71zm294.21 0l0 -87.8 66.96 87.8 66.72 0 -53.97 -80.61c10.52,-4.76 16.52,-9.67 23.65,-19.28 10,-13.51 15.14,-28.22 15.14,-43.73l0 -5.62c0,-25.22 -9,-38.59 -23.18,-52.2 -8.33,-7.85 -17.94,-13.71 -28.93,-17.56 -12.66,-3.81 -25.79,-5.71 -39.21,-5.71l-82.14 0 0.14 224.71 54.82 0zm32.27 -117.78l-11.99 0 0 -0.14 -20.42 0 0 -52.26 24.03 0c10.28,0 22.84,2.67 28.7,7.48 5.95,5.33 8.8,11.23 8.8,18.13 0,15.51 -14.04,26.79 -29.12,26.79zm197.08 117.78l0 -224.71 -54.82 0 0 224.71 54.82 0zm102.34 -77.09l-57.3 11.7 0.72 4.43c5.47,35.93 39.5,62.96 80.61,62.96 44.83,0 81.43,-30.79 81.43,-69.39 0,-32.36 -27.27,-54.15 -59.3,-62.24 -19.04,-4.85 -42.07,-9.61 -42.07,-24.46 0,-9.47 9.23,-17.23 20.13,-17.23 14.23,0 19.89,10 19.89,23.84l57.73 -11.66 -0.62 -4.37c-4.95,-35.55 -36.17,-62.92 -77.33,-62.92 -45.07,0 -78.05,30.94 -78.05,69.25 0,31.59 26.18,54.25 57.3,63.48 19.99,5.9 44.35,8.18 44.35,23.08 0,8.71 -12.28,17.23 -23.84,17.23l-2.9 0 -0.05 0c-10.75,-1.38 -20.7,-9.52 -20.7,-17.85l0 -5.85zm143.31 -93.09l57.44 0 0.57 170.18 61.96 0 -2 -170.18 57.3 0 0 -54.53 -175.27 0 0 54.53z"/>
   <path class="fil0" d="M2115.74 332.42l-33.8 283.16 -198.58 -204.53 -123.21 41.69 387.35 396.52 24.76 -8.38 67.89 -550.56 -124.41 42.1zm454.42 410.83l-112.38 -486.95 -118.79 27.41 112.37 486.95 118.8 -27.41zm267.98 -548.06l-14.8 1.88c-76.64,9.74 -140.05,43.09 -188.81,99.21 -44.98,55.75 -63.21,118.77 -54.47,187.54 8.77,68.98 42.17,125.33 99.73,167.83 60.66,41.59 130.35,57.69 207.43,48.12 39.06,-4.97 74.64,-16.32 106.72,-34.16 31.52,-18.09 57.18,-40.34 77.92,-66.88l6.69 -8.63 -97.99 -75.13 -7.23 8.6c-26.1,31.37 -59.25,49.24 -101.24,54.57 -41.68,5.3 -77.99,-2.56 -110.51,-24.15 -32.84,-21.75 -51.15,-49.93 -55.71,-85.84 -4.51,-35.48 6.17,-67.35 32.47,-97.05 25.97,-29.11 59.04,-45.9 100.93,-51.23 41.26,-5.24 77.82,3.77 111.46,27.55l9.05 6.53 76.18 -97.27 -8.84 -6.66c-47.12,-34.98 -112.21,-59.36 -189.2,-53.2l0.22 -1.63zm282.48 102.85l127.71 3.22 -8.29 378.38 137.75 3.48 5.12 -378.46 127.38 3.22 3.06 -121.25 -389.66 -9.84 -3.07 121.25zm487.98 -36.02c-57.41,42.96 -90.83,99.41 -99.57,168.18 -8.77,68.98 9.48,131.9 54.5,187.33 47.61,55.13 101.08,86.88 177.28,96.79 76.12,9.67 135.82,-7.71 195.95,-49.36 57.64,-42.17 91.25,-98.5 100.04,-167.69 8.77,-68.97 -9.67,-132.02 -54.75,-187.79 -48.04,-56.03 -101.45,-88.21 -177.36,-97.86 -75.8,-9.63 -135.57,8.17 -196.09,50.4zm270.97 121.82c26.12,29.45 36.71,61.2 32.17,96.9 -4.59,36.11 -22.78,64.21 -55.39,85.78 -32.62,21.67 -59.28,30.76 -100.01,25.58 -41.37,-5.26 -64.9,-20.72 -90.66,-49.7 -26.05,-29.24 -36.41,-61.07 -31.85,-96.97 4.51,-35.5 22.5,-63.71 55.1,-85.93 31.98,-21.75 58.66,-30.95 100.23,-25.67 40.94,5.2 64.47,20.78 90.41,50.01zm289.84 416.57l53.34 -187.83 89.9 228.51 142.73 40.53 -66.47 -205.24c25.39,-3.8 41.19,-10.65 62.31,-26.87 29.58,-22.84 49.51,-51.18 58.94,-84.37l3.41 -12.01c15.32,-53.97 4.2,-88.03 -17.87,-125.76 -13.04,-21.87 -30.06,-40.22 -51.23,-55.16 -24.77,-15.82 -51.71,-27.88 -80.42,-36.03l-175.72 -49.9 -136.2 480.83 117.28 33.3zm140.57 -232.37l-25.65 -7.29 0.08 -0.31 -43.67 -12.4 31.74 -111.78 51.41 14.6c21.99,6.24 47.25,19.58 56.85,33.42 9.49,15.01 12.02,29.37 7.82,44.13 -9.42,33.19 -46.3,48.79 -78.58,39.63zm337.79 171.29l-87.76 194.12 124.99 56.5 87.75 -194.12 268.84 -193.11 -126.24 -57.07 -153.25 107.26 -20.71 -185.91 -125.95 -56.94 32.33 329.27zm906.01 173.14l-12.16 -8.64c-62.96,-44.78 -132.18,-63.22 -206.08,-54.99 -70.85,10.51 -126.97,44.5 -167.14,101 -40.3,56.67 -53.92,120.74 -40.39,191 16.42,71.69 56.76,130.75 119.94,175.95 32.08,22.82 65.94,38.58 101.62,47.2 35.44,8.06 69.38,9.08 102.62,3.62l10.76 -1.81 -21.14 -121.66 -11.14 1.43c-40.45,5.38 -76.94,-3.94 -111.44,-28.47 -34.24,-24.35 -55.61,-54.74 -64.89,-92.65 -9.42,-38.25 -3.79,-71.38 17.19,-100.88 20.73,-29.15 50.18,-45.35 89.65,-49.36 38.83,-3.82 74.52,6.24 108.94,30.72 33.89,24.1 54.68,55.51 63.3,95.79l2.22 10.93 121.94 -19.9 -1.99 -10.89c-10.95,-57.66 -42.29,-119.69 -103.07,-167.33l1.26 -1.06zm212.36 245.73c-71.7,0.52 -132.1,26.14 -179.93,76.32 -47.97,50.32 -70.61,111.81 -67.25,183.13 5.62,72.63 29.83,129.91 85.29,183.09 55.54,52.94 113.92,74.37 187.03,76.51 71.42,0.25 131.9,-25.16 180.02,-75.64 47.97,-50.33 70.53,-112.02 67.32,-183.66 -5.43,-73.61 -29.33,-131.2 -84.72,-184 -55.31,-52.72 -113.98,-73.85 -187.76,-75.75zm145.87 258.81c3.56,39.21 -6.76,71.05 -31.59,97.1 -25.11,26.35 -56.42,38.17 -95.47,36.19 -39.12,-1.91 -65.97,-10.4 -95.69,-38.73 -30.18,-28.78 -39.95,-55.19 -43.49,-93.8 -3.63,-38.99 6.91,-70.76 31.88,-96.96 24.69,-25.89 55.91,-37.94 95.33,-36.49 38.65,1.47 65.58,9.88 95.92,38.8 29.87,28.48 39.57,54.97 43.11,93.89zm310.87 85.2l-393.94 309.57 75.33 95.86 145.12 -114.04 -55.4 227.53 233.84 -0.29 -145.05 113.97 75.33 95.87 393.95 -309.57 -15.5 -19.72 -398.69 6.68 100.51 -386.14 -15.5 -19.72zm426.05 554.31l-445.93 228.39 55.57 108.51 164.28 -84.13 -97.95 212.71 229.57 44.49 -164.19 84.09 55.58 108.51 445.93 -228.39 -11.43 -22.32 -392.59 -69.8 172.59 -359.74 -11.43 -22.32zm5.23 931.18c-8.99,-26.56 -8.87,-51.3 0.67,-75.64 9.75,-24.64 25.21,-40.04 47.17,-47.47l280.6 -94.95 -39.28 -116.08 -284.71 96.34c-53.13,17.97 -92.33,53.35 -116.67,105.27 -24.06,51.72 -25.48,109.96 -4.38,172.32 20.93,61.85 57.33,106.97 107.91,133.64 50.87,26.49 103.49,30.8 156.62,12.82l284.72 -96.34 -39.28 -116.09 -280.6 94.95c-46.22,15.64 -96.49,-20.65 -112.77,-68.77zm477.63 221.71l-493.22 88.09 22.11 123.77 258.27 -46.13 -206.98 333.36 4.84 27.08 493.22 -88.08 -22.18 -124.18 -258.91 46.23 207.5 -334.1 -4.65 -26.04zm-405.27 705.35l498.31 -37.9 -9.25 -121.57 -498.31 37.9 9.25 121.57zm386.1 34.58l3.22 127.71 -378.3 10.82 3.48 137.75 378.22 -14 3.22 127.38 121.25 -3.06 -9.84 -389.66 -121.25 3.06zm-181.26 619.31l-211.35 -26.86 -17.29 136.07 211.34 26.85 263.57 200.25 17.47 -137.43 -147.55 -114.98 171.62 -74.42 17.42 -137.12 -305.23 127.64zm-118.13 882.4c11.51,13.17 33.1,29.97 53.05,36.72 35.68,12.07 72.01,8.72 108.59,-13.53 37.79,-23.19 65.03,-58.11 80.43,-103.62l48.2 -142.45 -473.38 -160.18 -65.37 193.18c-17.06,50.42 -16.65,99.39 2.54,140.74 19.16,40.12 50.16,68.04 92.07,82.22 53.93,18.25 116.47,5.77 153.93,-33.28l-0.06 0.2zm-135.4 -151.62l26.29 -77.69 94.44 31.96c-8.83,26.73 -15.73,49.75 -26.36,76.89 -5.52,13.66 -14.03,23.95 -27.39,32.06 -12.78,7.07 -25,8.52 -38.23,4.05 -26.97,-9.13 -38.11,-39.6 -28.75,-67.27zm222.07 56.93c-19.35,-6.54 -25.07,-28.59 -20.63,-48.32 2.42,-9.46 4.49,-17.59 6.5,-24.83l65.46 22.15 -9.12 26.96c-6.14,18.15 -24.87,29.91 -42.21,24.04zm-275.53 420.23l-74.79 1.26 26.5 -58.63 48.29 57.37zm-170.35 -212.55l53.65 65.02 -70.93 156.9 -84.21 2.58 -54.63 120.84 554.01 -14.36 11.9 -26.33 -355.29 -425.2 -54.5 120.55zm-255.29 479.61l117.16 75.11 -39.01 60.85c-30.9,48.2 -42.94,99.93 -34.31,150.99 9.31,49.21 35.43,88.07 77.49,115.04 41.78,26.78 88.18,34.4 137.32,22.66 49.72,-12.63 91.07,-44.2 121.52,-91.69l106.29 -165.81 -420.66 -269.79 -65.8 102.64zm189.75 295.25c-28.86,-18.51 -30.81,-61.37 -11.39,-91.66l38.04 -58.96 99.53 63.8 -37.99 59.25c-19.24,30.02 -59.23,46.13 -88.19,27.57zm-64.3 201.53l-83.65 96.56 -286.88 -246.85 -90.22 104.15 288.96 244.45 -83.43 96.3 91.67 79.42 255.22 -294.61 -91.67 -79.42zm-659.51 159.43l344.82 361.72 88.25 -84.12 -344.83 -361.73 -88.24 84.13zm-13.83 247.01l79.26 -103.11 -7.64 -6.41c-61.51,-52.42 -158.07,-48.31 -227.19,11.56 -75.35,65.28 -92.03,170.33 -35.83,235.2 47.12,54.4 124.7,51.32 190.31,18.29 39.07,-19.56 84.71,-45.1 106.33,-20.15 13.79,15.92 9.57,42.4 -8.75,58.27 -23.92,20.72 -47.99,12.18 -68.15,-11.1l-80.05 103.65 7.4 6.46c60.09,52.54 152.42,53.08 221.61,-6.86 75.75,-65.62 86.14,-165.64 30.36,-230.03 -46.02,-53.12 -123,-53.08 -188.75,-23.28 -42.19,19.18 -86.48,50.82 -108.16,25.79 -12.69,-14.64 -4.45,-46.83 14.99,-63.67l4.88 -4.23 0.07 -0.07c20.09,-13.35 48.66,-14.15 60.78,-0.15l8.53 9.84zm-104.66 360.15l-107.55 68.94 -205.32 -317.93 -116 74.37 207.99 316.21 -107.27 68.77 65.46 102.11 328.15 -210.36 -65.46 -102.11zm-774.65 570.32l13.59 -6.14c70.4,-31.83 121.21,-82.33 151.33,-150.31 26.62,-66.5 25.53,-132.09 -3.02,-195.26 -28.65,-63.37 -77.13,-107.42 -144.64,-131.13 -70.2,-21.93 -141.54,-16.85 -212.41,14.95 -35.88,16.22 -66.56,37.52 -91.98,64 -24.81,26.55 -42.8,55.36 -54.83,86.81l-3.86 10.22 115.74 43.03 4.38 -10.34c15.73,-37.65 42.17,-64.47 80.74,-81.91 38.29,-17.31 75.31,-20.46 112.73,-9.38 37.78,11.14 63.56,32.7 78.47,65.68 14.74,32.6 13.89,66.2 -2.53,102.31 -16.27,35.46 -42.94,61.23 -81.42,78.62 -37.9,17.13 -75.5,19.26 -114.64,6.41l-10.56 -3.58 -44.25 115.36 10.41 3.77c55.32,19.59 124.69,23.77 196.47,-4.73l0.28 1.62zm-424.82 -372.88l-117.28 33.3 51.69 182.04 -160.65 45.62 -51.69 -182.04 -117.28 33.31 136.51 480.74 117.28 -33.3 -51.69 -182.04 160.65 -45.62 51.69 182.04 117.29 -33.31 -136.52 -480.74zm-662.25 262.09c27.82,-3.53 52.04,1.5 74,15.67 22.22,14.45 34.24,32.66 37.16,55.66l37.35 293.87 121.57 -15.45 -37.89 -298.18c-7.07,-55.64 -33.97,-101.08 -80.02,-135.24 -45.91,-33.85 -102.71,-46.8 -168.01,-38.5 -64.78,8.23 -116.23,34.94 -152.41,79.22 -36.06,44.59 -50.73,95.32 -43.66,150.96l37.89 298.17 121.58 -15.45 -37.35 -293.86c-6.15,-48.4 39.4,-90.46 89.79,-96.87zm-427.7 -90.3l-4.93 195.19 -143.92 -198.96 -148.34 -3.74 115.45 182.25c-23.65,10 -37.25,20.56 -53.67,41.52 -22.97,29.49 -35.22,61.89 -36.09,96.39l-0.32 12.47c-1.42,56.09 17.83,86.31 48.59,117.37 18.08,17.93 39.12,31.48 63.35,40.67 27.92,9.17 57.02,14.15 86.85,14.9l182.61 4.61 12.3 -499.6 -121.88 -3.07zm-78.34 260.04l26.66 0.67 -0.01 0.32 45.39 1.15 -2.94 116.16 -53.42 -1.35c-22.85,-0.57 -50.64,-7.21 -63.38,-18.22 -12.93,-12.18 -18.95,-25.46 -18.56,-40.81 0.87,-34.48 32.72,-58.77 66.26,-57.92zm-579.76 192.18l14.8 1.88c76.65,9.74 146.37,-6.69 207.63,-48.83 57.49,-42.72 90.9,-99.18 99.64,-167.95 8.77,-68.98 -9.47,-131.89 -54.58,-187.44 -48.33,-55.44 -111.77,-88.46 -188.8,-98.47 -39.06,-4.97 -76.35,-2.87 -111.87,6.38 -35.04,9.62 -65.45,24.75 -92.17,45.26l-8.63 6.68 76.07 97.26 9.16 -6.52c33.11,-23.85 69.68,-32.86 111.67,-27.52 41.68,5.3 74.87,21.99 100.95,51.02 26.36,29.28 37.04,61.14 32.48,97.05 -4.51,35.49 -22.82,63.67 -55.72,85.84 -32.42,21.7 -68.64,29.69 -110.53,24.36 -41.26,-5.24 -74.41,-23.11 -101.03,-54.55l-7.13 -8.59 -98.09 75.13 6.89 8.65c36.88,45.66 93.8,85.54 169.88,98.84l-0.62 1.52zm-167.33 -539.41l-117.28 -33.3 -51.69 182.03 -160.65 -45.62 51.69 -182.03 -117.28 -33.31 -136.51 480.75 117.28 33.3 51.69 -182.03 160.65 45.62 -51.69 182.03 117.28 33.3 136.51 -480.74z"/>
  </g>
 </g>
</svg>
