<?xml version="1.0" encoding="UTF-8"?>
<!DOCTYPE svg PUBLIC "-//W3C//DTD SVG 1.1//EN" "http://www.w3.org/Graphics/SVG/1.1/DTD/svg11.dtd">
<!-- Creator: CorelDRAW 2019 (64-Bit) -->
<svg xmlns="http://www.w3.org/2000/svg" xml:space="preserve" width="144.954mm" height="55.311mm" version="1.1" style="shape-rendering:geometricPrecision; text-rendering:geometricPrecision; image-rendering:optimizeQuality; fill-rule:evenodd; clip-rule:evenodd"
viewBox="0 0 14495.4 5531.1"
 xmlns:xlink="http://www.w3.org/1999/xlink"
 xmlns:xodm="http://www.corel.com/coreldraw/odm/2003">
 <defs>
  <style type="text/css">
   <![CDATA[
    .fil1 {fill:white}
    .fil0 {fill:white;fill-rule:nonzero}
   ]]>
  </style>
 </defs>
 <g id="Layer_x0020_1">
  <metadata id="CorelCorpID_0Corel-Layer"/>
  <g id="_706305897344">
   <g>
    <path class="fil0" d="M549.82 1165.36c-16.9,-1.05 -31.62,-4.86 -44.19,-11.55 -12.57,-6.67 -23.24,-13.47 -31.99,-20.66 -9.94,-8.57 -18.66,-18.17 -26.27,-28.75 -16.82,-25.51 -28.82,-59.34 -35.84,-101.33 -6.12,-36.23 -8.72,-79.29 -7.67,-129.2 0.82,-40.67 4.29,-84.71 10.45,-132.28 6.16,-47.57 14.88,-99.07 26,-154.57 -2.03,-33.53 -6.37,-63.09 -12.82,-88.78 -6.46,-25.69 -14.03,-48.55 -22.75,-68.59 -12.01,8.71 -25.33,16.64 -39.85,23.53 -14.53,6.89 -28.16,13.1 -40.86,18.4 -14.82,6.08 -29.81,12 -44.82,17.57 -44.62,16.59 -85.39,26.59 -122.34,29.89 -36.94,3.3 -68.22,-0.66 -93.83,-11.9 -19.72,-8.61 -35.12,-20.76 -46.13,-36.5 -11.01,-15.74 -16.84,-34.21 -17.4,-55.44 -0.46,-17.6 4.04,-35.09 13.43,-52.68 4.24,-8.34 9.56,-15.94 15.82,-22.85 6.26,-6.91 13.26,-13.98 21.04,-21.12 15.51,-12.53 33.47,-23.44 53.82,-32.84 20.35,-9.4 42.11,-16.57 65.36,-21.54 27.9,-5.45 55.4,-7.64 82.48,-6.35 27.07,1.28 52.03,6.45 75.05,15.66 49.47,19.55 85.78,51.57 109.1,96.09 12.79,-6.59 25.53,-13.96 38.15,-21.96 12.61,-8.02 24.35,-15.6 35.12,-22.69 12.2,-8.21 24.08,-16.64 35.59,-25.16 12.39,-9.54 25.27,-19.6 38.68,-30.43 13.4,-10.82 25.36,-20.89 35.95,-30.33 12.29,-11.32 24.63,-22.56 36.93,-33.9 44.7,-41.03 86.38,-75.1 125.3,-102.06 38.93,-26.96 77.26,-48.78 115.15,-65.26 11.59,-4.89 24.28,-9.61 37.87,-14.08 11.46,-3.7 24.71,-7.24 39.62,-10.6 14.91,-3.38 30.55,-5.4 46.86,-5.95 6.72,-0.1 15.64,0.14 26.81,0.57 11.16,0.44 22.24,2.17 33.09,5.13 10.84,2.96 20.36,7.91 28.37,14.67 8.02,6.77 12.42,16.13 13.2,28.12 0.52,2.9 0.3,5.72 -0.52,8.44 -0.32,2.52 -1.21,5.38 -2.84,8.39 -1.64,3.01 -3.56,5.56 -5.86,7.68 -3.55,3.73 -8.29,6.4 -14.41,8.11 -6.14,1.71 -14.09,1.57 -23.95,-0.27 -5.84,-0.92 -12.33,-2.64 -19.35,-5.19 -7.03,-2.55 -15.14,-5.26 -24.07,-8.01 -14.1,-3.36 -28.78,-4.32 -44.17,-2.85 -8.33,0.7 -16.7,1.96 -25.16,3.85 -17.82,2.95 -36.15,7.94 -54.98,14.94 -18.84,7 -37.03,14.79 -54.55,23.48 -17.52,8.69 -34.17,17.86 -49.79,27.68 -15.61,9.82 -29.17,18.98 -40.68,27.5 -15.74,11.93 -33.56,25.66 -53.53,41 -19.99,15.33 -39.13,30.14 -57.39,44.26 -18.25,14.12 -34.24,26.59 -47.94,37.54 -13.71,10.93 -22.26,17.55 -25.57,20.04 -8.46,33.07 -17.27,69.81 -26.43,110.25 -9.16,40.43 -18.1,82.39 -26.98,126.04 -8.88,43.65 -16.85,87.89 -24.02,132.75 -7.18,44.85 -12.89,88.7 -17.13,131.55 -4.26,42.85 -6.57,83.49 -7,121.82 -0.42,38.33 1.86,72.56 6.9,102.45 1.1,6.35 3.08,13.53 5.77,21.7 2.69,8.17 6.69,15.85 11.81,23.12 5.11,7.27 11.87,13.13 20.32,17.67 8.45,4.54 18.74,6 31.03,4.52 4.13,-0.28 8.33,-0.69 12.47,-0.97 3.64,-0.1 7.31,-0.08 11.03,0.03 3.7,0.11 7.37,1.04 11.1,2.74 5.94,2.73 10.66,7.4 14.35,13.93 3.69,6.54 4.08,14.99 1.14,25.26 -1.62,5.53 -4.37,9.54 -8.29,12.25 -3.92,2.72 -8.3,4.81 -13.25,6.3 -4.95,1.49 -10.15,2.29 -15.71,2.17 -5.54,-0.11 -10.5,-0.22 -14.83,-0.45zm-366.53 -874.41c-16.2,2.35 -30.7,5.9 -43.29,10.58 -12.6,4.68 -23.29,9.23 -32.04,13.75 -10.18,5.61 -19.56,11.51 -28.22,17.82 -14.32,10.83 -24.22,21.5 -29.78,32.16 -5.55,10.67 -8.59,20.05 -9.23,28.2 -1.15,10.17 0.25,19.51 3.94,27.89 5.8,15.6 17.11,26.31 34.01,32.29 16.9,5.98 34.28,9.27 52.29,9.91 20.54,0.96 43.47,-0.57 68.93,-4.53 32.84,-5.44 64.96,-13.71 96.27,-24.77 31.31,-11.07 61.74,-23.87 91.16,-38.48 -8.29,-13.99 -16.18,-25.97 -23.78,-35.63 -7.62,-9.67 -14.68,-17.59 -21.22,-23.76 -7.51,-6.95 -14.44,-12.63 -20.98,-16.97 -11.93,-8.97 -24.3,-15.72 -37.27,-20.08 -12.96,-4.34 -25.34,-7.43 -37.3,-9.06 -11.95,-1.63 -23.43,-2.29 -34.6,-1.81 -11.18,0.49 -20.74,1.28 -28.89,2.49zm287.5 159.1c3.55,-13.59 6.72,-26.35 9.57,-38.42 2.85,-12.06 6.12,-23.94 9.66,-35.69 -13.39,9.92 -26.2,18.34 -38.31,25.25 2.5,5.15 5.4,11.75 8.7,19.7 3.3,7.94 6.69,17.68 10.38,29.16zm208.4 381.77c1.02,2.72 2.21,5.03 3.51,6.96 0.78,2.11 1.6,3.99 2.49,5.49 0.91,1.49 1.5,2.77 1.91,3.88 1.88,3.54 2.79,7.22 2.68,10.92 -0.11,3.71 -2.15,6.87 -6.06,9.59 -2.27,2.23 -4.47,3.73 -6.58,4.51 -2.12,0.79 -4.77,1.66 -7.81,2.44 -3.03,0.79 -6.34,0.52 -9.88,-0.67 -8.06,-1.94 -14.76,-5.18 -20.2,-9.93 -7.51,-6.95 -13.73,-15.98 -18.74,-26.96 -4.99,-10.99 -8.79,-21.5 -11.27,-31.59 -3.08,-11.68 -5.78,-23.87 -8.05,-36.44 -2.45,-18 -4.1,-36.65 -5.16,-55.85 -1.07,-19.21 -1.67,-37.79 -1.9,-55.71 -0.25,-17.9 -0.07,-34.7 0.59,-50.2 0.66,-15.49 1.29,-28.91 2.03,-40.19 1.18,-23.02 3.35,-46.18 6.34,-69.3 2.99,-23.12 6.68,-46.16 10.97,-69.19 -11.29,4.19 -22.65,8.19 -34.07,11.97 -9.68,3.6 -20.33,7.33 -32.03,11.34 -11.69,3.99 -22.72,7.63 -33.11,10.81 -22.75,7.89 -41.55,17.74 -56.38,29.67 -14.83,11.93 -27.19,24.32 -37.09,37.17 -9.89,12.85 -18.18,25.1 -24.85,36.76 -6.68,11.65 -13.26,21.08 -19.71,28.41 -8.57,9.95 -16.19,15.65 -22.93,17.24 -6.75,1.59 -12.84,1.56 -18.37,-0.05 -6.22,-1.93 -11.76,-6.06 -16.46,-12.23 -9.32,-11.78 -11.6,-23.78 -6.94,-35.94 4.65,-12.16 11.55,-23.2 20.62,-33.34 11.04,-11.32 24.71,-22.36 40.86,-33.19 8.56,-5.01 19.49,-10.79 32.89,-17.61 11.9,-5.91 27.31,-12.56 46.24,-19.94 18.92,-7.37 42.84,-15.8 71.76,-25.29 14.18,-4.7 26.96,-9.22 38.43,-13.83 11.46,-4.6 21.62,-8.73 30.64,-12.53 9.95,-4.39 19.19,-8.52 27.53,-12.3 6.52,-26.85 13.73,-52.79 21.55,-77.71 7.83,-24.92 16.23,-47.65 25.15,-68.05 8.93,-20.4 17.91,-38.17 27.03,-53.14 9.1,-14.97 18.27,-26.4 27.66,-34.13 4.55,-4.11 9.66,-7.62 15.43,-10.32 4.64,-2.3 9.91,-4.15 15.86,-5.44 5.93,-1.29 11.92,-1.22 17.96,0.2 7.55,2.12 14.37,6.58 20.58,13.45 5.3,5.93 10.02,14.61 14.22,25.89 4.19,11.28 5.87,26.59 5.09,45.8 -1.65,20.21 -6.86,39.81 -15.66,59.02 -7.79,16.98 -19.47,34.29 -35.22,52.06 -15.75,17.78 -37.89,33.46 -66.38,47.14 -2.77,15.71 -5.12,31.6 -7.09,47.58 -1.75,13.48 -3.8,28.01 -6.26,43.59 -2.46,15.59 -4.51,30.12 -6.26,43.61 -1.98,17.81 -3.82,36.61 -5.7,56.22 -1.56,17.09 -2.91,36.28 -3.89,57.39 -0.98,21.11 -1.54,42.42 -1.49,63.84 2.26,-8.75 4.68,-18.25 7.33,-28.4 2.63,-10.16 6.1,-20.28 10.24,-30.42 5.57,-16.16 12.19,-32.61 19.66,-49.48 7.49,-16.89 15.79,-32.81 24.89,-47.78 9.11,-14.96 18.75,-28.52 28.95,-40.56 10.2,-12.05 20.95,-21.67 32.32,-28.99 5.54,-3.31 11.58,-5.56 18.14,-6.74 6.55,-1.17 13.37,-0.73 20.32,1.62 12.16,4.65 19.89,13.13 23.17,25.32 3.28,12.2 4.56,23.07 3.83,32.52 -1.12,5.34 -1.98,10.7 -2.71,16.13 -0.74,5.43 -1.8,11.22 -3.22,17.25 -1.85,9.86 -4.35,24.08 -7.53,42.69 -3.16,18.61 -5.7,38 -7.65,58.33 -1.96,20.33 -2.69,39.97 -2.34,59.11 0.35,19.12 3.05,33.83 8.17,44.19 1.89,3.54 4.72,6.84 8.23,9.78 3.49,2.94 7.94,1.64 13.18,-3.98 5.25,-5.62 10.12,-13.5 14.56,-23.75 4.45,-10.25 8.52,-20.26 12.16,-30.2 4.15,-11.97 7.94,-24.62 11.49,-38.21 4.18,-14.96 7.75,-30.05 10.69,-45.24 2.95,-15.19 5.63,-29.26 8.07,-42.43 2.44,-13.18 4.66,-24.78 6.69,-35.06 2.04,-10.27 4.15,-18.15 6.26,-23.87 0.31,-0.69 1.01,-1.29 2.12,-1.7 2.72,-1.02 5.52,-1.49 8.65,-1.39 2.53,0.33 4.12,2.14 4.82,5.55 -0.09,1.3 -0.07,5.06 0.12,11.42 0.18,6.35 -0.19,14.63 -1.33,24.8 -2.2,27.06 -5.98,53.92 -11.41,80.35 -4.5,22.43 -10.95,45.81 -19.37,70.03 -8.42,24.22 -19.2,44.86 -32.42,62.03 -0.92,0.92 -3.22,3.38 -6.96,7.17 -3.75,3.81 -9,7.59 -15.53,11.28 -6.54,3.69 -14.3,6.24 -23.26,7.73 -8.96,1.5 -18.62,0.5 -29.08,-2.95 -8.42,-2.94 -15.67,-9.19 -21.58,-18.57 -5.89,-9.39 -11.01,-21.02 -15.18,-34.71 -4.18,-13.69 -7.31,-28.58 -9.28,-44.7 -1.98,-16.12 -2.67,-32.14 -1.92,-48.35 0.31,-10.55 1.17,-22.45 2.31,-35.71 1.14,-13.27 2.5,-25.35 3.93,-36.32 1.93,-12.98 3.81,-25.83 5.75,-38.81 -4.56,4.09 -12.57,15.21 -23.9,33.18 -11.32,17.96 -22.56,40.14 -33.5,66.56 -10.93,26.42 -20.14,55.29 -27.36,86.75 -7.22,31.46 -8.92,62.36 -5,92.65zm96.39 -636.31c-2.02,-0.51 -5.44,-0.15 -10.16,1.03 -4.72,1.18 -10.38,6.61 -16.85,16.35 -6.47,9.74 -13.75,25.63 -21.77,47.52 -8.02,21.91 -16.44,53.24 -25.22,93.76 13.4,-6.81 24.69,-14.68 33.87,-23.6 9.19,-8.91 16.65,-17.19 22.41,-24.84 6.35,-9.11 11.62,-18.08 15.67,-26.91 6.81,-17.78 10.67,-32.05 11.6,-42.83 0.93,-10.77 0.77,-19.2 -0.33,-25.56 -1.29,-6.86 -4.38,-11.79 -9.22,-14.92zm255.75 527.67c10.55,2.15 21.34,0.65 32.22,-4.64 10.87,-5.31 20.85,-11.43 29.83,-18.43 10.4,-8.1 20.37,-17.67 29.76,-28.49 6.27,-7.83 11.59,-15.43 15.82,-22.84 4.23,-7.43 7.82,-13.81 10.76,-19.15 5.77,-12.57 11.03,-25.52 15.82,-38.89 4.77,-13.35 9.11,-25.74 12.88,-36.88 3.96,-12.48 7.51,-25.14 10.67,-37.9 3.55,-13.59 6.87,-26.86 9.93,-39.91 3.05,-13.07 6.06,-24.73 9.01,-34.99 0.81,-2.72 1.72,-5.24 2.73,-7.44 1.71,-3.73 3.75,-5.64 6.06,-5.92 3.13,0.09 5.92,1.12 8.54,3.24 2.62,2.13 3.62,6.34 2.88,12.69 -1.15,10.17 -2.69,20.83 -4.62,31.98 -1.52,9.17 -3.21,19.43 -5.07,30.78 -1.85,11.34 -4.12,22.51 -6.89,33.28 -0.92,4 -2.02,8.43 -3.36,13.17 -2.44,8.24 -5.89,18.7 -10.35,31.36 -1.93,6.23 -5.58,15.83 -10.85,28.79 -5.27,12.97 -12.66,27.3 -22.05,43.05 -9.39,15.77 -20.86,31.49 -34.3,47.15 -13.44,15.65 -29.51,28.84 -48.16,39.45 -19.25,10.82 -35.98,17.61 -50.16,20.48 -14.18,2.86 -26.26,3.69 -36.24,2.46 -9.97,-1.23 -17.34,-3.18 -22.36,-5.9 -5.03,-2.72 -7.49,-4.1 -7.49,-4.1 -11.56,-7.96 -21.38,-20.83 -29.46,-38.57 -8.09,-17.75 -13.68,-42.03 -16.5,-72.74 -2.26,-22.43 -2.43,-43.57 -0.67,-63.49 1.77,-19.91 4.17,-37.2 7.35,-51.79 3.95,-17.41 8.53,-32.87 13.92,-46.44 5.47,-14.89 11.66,-27.84 18.52,-39 6.86,-11.14 13.25,-20.17 19.2,-27.3 7.18,-8.75 14.54,-16.07 22.09,-21.98 5.15,-4.32 10.78,-8.02 17.04,-10.91 5.75,-2.72 12.28,-4.91 19.63,-6.38 7.37,-1.49 15.52,-1.76 24.46,-0.84 3.51,1.1 7.25,2.24 11.26,3.16 3.5,1.09 7.34,2.76 11.45,4.91 4.12,2.13 8.33,4.81 12.66,8.12 5.81,5.76 11.33,13.22 16.53,22.29 4.11,7.65 8.07,17.07 11.84,28.16 3.78,11.09 5.83,24.31 5.98,39.51l0.31 0.81c-0.05,14.68 -2.37,30.33 -6.83,47.01 -4.47,16.68 -12.04,33.01 -22.54,49.19 -9.3,14.46 -19.16,27.41 -29.54,38.95 -10.38,11.54 -20.49,21.37 -30.27,29.6 -9.78,8.22 -18.76,15.22 -27.03,21.04 -8.26,5.83 -15.15,10.11 -20.91,12.82 2.49,10.08 6.54,19.13 11.95,27.2 5.4,8.08 13.59,12.83 24.55,14.27zm69.6 -232.23c0.74,-16.21 -0.07,-28.86 -2.26,-38.14 -2.19,-9.28 -5.14,-16.32 -8.74,-21.05 -4.32,-5.15 -9.03,-8.56 -13.96,-10.41 -14.37,-0.73 -27.35,9.37 -39.07,30.58 -11.72,21.2 -22.54,48.85 -32.39,83.11 -3.54,13.59 -6.42,27.15 -8.67,40.83 -2.35,11.88 -4.05,24.9 -5.19,39.07 -1.15,14.19 -1.05,28.02 0.33,41.61 14,-10.14 27.34,-21.75 40.15,-35.1 12.8,-13.36 24.22,-27.35 34.33,-42.11 10.1,-14.76 18.34,-29.63 24.73,-44.5 6.39,-14.87 10,-29.52 10.74,-43.89z"/>
    <path class="fil0" d="M987.57 2993.02c-2.02,0 -3.86,-1 -5.54,-3.02 -1.68,-2.01 -2.51,-4.03 -2.51,-6.05l-1.01 -692.05c0,-2.69 0.84,-4.87 2.51,-6.55 1.68,-1.68 3.53,-2.52 5.54,-2.52l155.14 0c2.01,0 3.86,0.84 5.54,2.52 1.68,1.68 2.52,3.86 2.52,6.55l1.01 692.05c0,2.02 -0.84,4.04 -2.53,6.05 -1.67,2.02 -3.52,3.02 -5.54,3.02l-155.13 0zm445.26 -460.36c-18.81,30.22 -28.21,64.47 -28.21,102.75 0,36.27 8.73,70.34 26.19,102.24 17.47,31.91 42.99,56.25 76.56,73.04 33.58,17.46 70.52,26.19 110.82,26.19 34.24,0 73.2,-5.71 116.85,-17.12 2.01,-0.68 4.2,-1.35 6.54,-2.02 2.36,-0.67 4.87,-1.01 7.56,-1.01 6.04,0 11.08,6.72 15.11,20.15l32.24 106.78c0.67,1.34 1,3.36 1,6.05 0,6.04 -2.51,11.41 -7.55,16.11 -5.04,4.7 -8.23,7.06 -9.57,7.06 -50.37,19.47 -103.08,29.21 -158.16,29.21 -72.53,0 -138.34,-16.46 -197.44,-49.37 -59.77,-32.9 -105.44,-76.56 -137,-130.95 -16.12,-27.53 -28.38,-57.42 -36.77,-89.66 -8.4,-32.23 -12.59,-64.8 -12.59,-97.71 0,-68.5 16.45,-129.61 49.36,-183.34 34.25,-56.41 79.58,-99.73 135.99,-129.95 59.1,-31.56 126.26,-47.35 201.47,-47.35 57.09,0 109.81,9.41 158.16,28.21 8.06,3.36 13.1,6.21 15.11,8.56 2.01,2.35 2.35,6.55 1.01,12.59l-33.24 117.87c-1.35,5.37 -2.52,8.9 -3.53,10.58 -1.01,1.67 -3.53,2.51 -7.56,2.51 -5.37,0 -13.43,-1.34 -24.17,-4.03 -9.4,-2.68 -19.48,-4.7 -30.22,-6.04 -28.21,-5.37 -55.4,-8.06 -81.6,-8.06 -83.95,0 -146.07,32.24 -186.36,96.71z"/>
    <path class="fil0" d="M902.14 2299.96c1.63,2.02 2.44,4.03 2.44,6.05l-1.23 4.02 -421.42 686.02 -3.67 4.03c-1.62,1.34 -3.66,2.01 -6.1,2.01 -4.07,0 -6.92,-1.34 -8.55,-4.03l-423.87 -689.04c-1.63,-2.68 -2.04,-4.7 -1.22,-6.04 0,-0.67 1.22,-2.01 3.67,-4.03 1.62,-1.34 3.65,-2.01 6.1,-2.01l204 0c2.44,0 4.87,1.01 7.32,3.02 1.63,1.34 2.44,2.35 2.44,3.02l210.11 357.61 211.33 -359.62c1.62,-2.69 4.47,-4.03 8.55,-4.03l201.55 0c3.25,0 6.1,1.01 8.55,3.02z"/>
    <path class="fil0" d="M3698.15 2967.01c2.92,3.37 2.92,6.39 0,9.07 -0.73,2.02 -3.28,3.03 -7.67,3.03l-190.78 0c-3.66,0 -6.21,-1.35 -7.67,-4.03l-139.25 -257.89 -44.95 -1.01 0 250.83c0,2.02 -0.37,3.7 -1.1,5.04 -0.72,1.35 -1.46,2.36 -2.19,3.03 -2.92,2.68 -5.84,4.03 -8.77,4.03l-164.47 0c-2.19,0 -4.2,-0.84 -6.02,-2.52 -1.83,-1.68 -2.74,-3.53 -2.74,-5.55l0 -690.04c0,-2.69 0.91,-4.7 2.74,-6.04 1.82,-1.35 3.83,-2.02 6.02,-2.02l312.48 0c38.02,-1.34 73.1,5.71 105.26,21.16 32.17,15.44 59.02,37.27 80.59,65.48 21.56,28.2 35.26,60.1 41.11,95.7 1.46,13.43 2.19,23.5 2.19,30.22 0,46.34 -12.43,88.14 -37.27,125.41 -24.86,37.28 -59.94,63.63 -105.25,79.08l167.74 277.02zm-217.09 -422.08c10.97,-15.45 16.45,-31.56 16.45,-48.35l0 -2.02c2.19,-16.79 -3.29,-32.24 -16.45,-46.34 -13.89,-14.1 -30.7,-21.15 -50.44,-21.15l-122.79 0 0 139.01 122.79 0c20.47,0 37.28,-7.04 50.44,-21.15zm904.55 -267.96c1.45,0.67 2.18,2.19 2.18,4.54 0,2.35 -0.73,4.19 -2.18,5.53l-255.47 361.65 0 320.34c0,2.01 -0.91,3.86 -2.74,5.54 -1.83,1.68 -3.84,2.52 -6.03,2.52l-166.66 0c-2.92,0 -5.12,-0.84 -6.58,-2.52 -1.46,-1.68 -2.19,-3.53 -2.19,-5.54l-1.09 -325.38 -244.5 -356.61c-0.74,-0.67 -1.1,-2.34 -1.1,-5.03 0,-5.37 2.55,-8.06 7.67,-8.06l182.01 0c4.38,0 6.94,1.35 7.67,4.03l142.54 220.61 149.11 -220.61c0.73,-2.68 3.29,-4.03 7.67,-4.03l183.11 0c2.19,0 4.38,1.01 6.58,3.02z"/>
    <polygon class="fil1" points="2040.46,1666.86 1997.02,1905.25 1708.49,1903.48 1673.17,2122.44 1957.44,2122.44 1750.87,3256.08 2012.21,3256.08 2206.98,2122.44 2817.41,2122.44 2852.73,1910.55 2244.03,1906.79 2287.67,1652.74 "/>
    <path class="fil1" d="M2363.8 2279.36l3.59 0.27c2,3.22 6.52,0.55 9.59,-0.41 11.63,-3.62 3.57,-3.08 2.78,-5.21 -0.21,-0.57 -0.8,-0.38 -1.13,-0.66 7.08,-0.35 4.45,-2.16 9.94,-3.96 11.32,-3.7 6.98,-3.2 13.61,-5.79 0.48,-1.24 -3.25,0.11 0.82,-1.88 1.19,-4.14 -2.99,-1.15 4.47,-3.7 8.57,-2.94 6.19,-0.64 17.44,-5.96 7.49,-3.54 15.3,-5.62 23.28,-8.13 1.08,-3.04 1.23,1.01 -0.5,-1.4 -2.18,-3.01 -1.49,1.63 -0.62,-0.32 5.87,-0.64 14.59,-3.36 18.64,-5.73 -7.37,-1.78 -12.59,-1.61 -20.47,-0.93 2.52,-2.78 6.02,-3.74 9.59,-5.2l28.85 -10.47c43.05,-15.15 90.81,-21.4 137.35,-21.07 31.69,0.21 65.16,3.73 94.96,10.81 14.41,3.42 27.14,6.86 41.24,11.52l29.51 10.82c3.28,1.34 6.1,1.88 7.17,5.25 -1.27,0.72 0.36,0.32 -2.36,0.58l-6.23 -0.18 -2.02 4.48c-2.85,-5.12 -14.21,-4.47 -18.61,-3.16l1.26 4.74c1.28,1.49 2.65,2.3 4.64,3.35 1.18,0.61 1.73,0.7 3.06,1.52 3.84,2.36 -0.07,3.07 6.78,3.19 -0.23,0.16 -0.61,0.32 -0.73,0.41 -0.1,0.07 -0.54,0.29 -0.64,0.39 -1.7,1.48 -2.04,-0.23 -0.64,1.51l10.87 5.07c5.72,-4.95 6.61,-10.83 13.56,-12.7 1.4,0.98 3.97,3.01 4.53,4.1l-0.68 3.15c6.24,-0.63 10.6,2.4 14.57,-1.85l-8.72 -3.96c-7.1,-3.97 -11.46,-4.25 -16.04,-6.68 4.46,-3.11 14.35,1.34 18.73,3.8 5.19,2.92 10.56,5.35 15.54,8.07 20.92,11.49 39.14,23.35 57.4,37.99 2.46,1.97 4.43,3.56 6.93,5.41 4.35,3.26 15.3,14.62 19.11,15.62 -0.07,1.02 -0.62,4.28 -0.62,4.43 -0.16,5.76 4.94,1.74 1.42,8.27 -2.2,0.64 -5.33,-2.18 -9.17,-1.06 -2.04,0.59 -6.56,3.4 -9.99,4.45 1.03,5.37 2.75,2.51 1.5,5.2 -1.62,3.49 -11.48,-3.58 -15.61,-1.27 0.85,2.8 -0.11,0.76 2.77,2.88 4.62,3.36 1.01,-2.23 4.35,4.01 -5.52,0.3 -13.28,-1.72 -15.37,-7.27l-0.25 -3.94c0.02,-0.21 0.14,-0.46 0.16,-0.94 0.02,-0.48 0.16,-0.63 0.18,-0.94 -3.71,-2.04 -4.38,-1.36 -6.86,-4.78 10.95,0.51 27.64,10.09 35.33,-0.83 -1.45,-5.72 -4.1,-5.76 -10.28,-7.97 -4.56,-1.63 -7.97,-3.91 -12.61,-5.44 -5.64,-1.85 -11.04,-1.35 -15.56,-3.75 -6.47,-3.41 -6.57,-0.44 -15.29,-2.51l5.91 -2.54c-3.05,-1.47 -3.9,-1.7 -7.28,-2.61 -13.73,-3.72 -6.77,-0.89 -11.77,0.19 -1.06,0.22 -4.43,-2.51 -12.13,-2.14l-2.69 1.46c-1.57,0.08 -3.2,-0.08 -5.17,0.38 -0.64,1.54 -0.22,1.2 -0.22,1.53l0.22 0.49c-18,1.61 -10.93,-0.4 -27.65,9.19l-0.4 -2.63c-3.22,2.07 -3.72,1.32 -7.33,4.3 -2.17,1.79 -5.49,2.45 -6.93,5.02 4.38,-2.74 4.3,-2.32 10.22,-2.61 -5.78,10.69 -15.62,8.9 -13.59,18.93 -4.09,1.02 -4.91,1.53 -5.22,1.81 -0.19,0.15 -0.51,0.67 -0.67,0.86 -6.14,7.47 -6.35,4.11 -11.97,7.55 -2.5,1.52 -0.47,1.07 -4.69,3.15 -1.65,0.82 -2.94,1.18 -4.69,2.16 -11.83,6.55 -6.39,24.56 1.24,27.81 6.49,2.75 10.39,-2.11 15.31,-4.62 2.29,-1.17 2.49,-0.71 4.77,-2.13 2.58,4.93 3.41,8.88 6.98,13.48 4.76,6.15 1.61,5.4 -6,7.6 1.72,6.45 0.91,1.91 3.21,5.53 -4.02,-1.25 -1.45,-0.44 -3.66,-2.23 -2.28,-1.86 0.42,-0.46 -3.65,-2.63 1.59,-1.78 2.24,-2.08 4.24,-3.28 -0.21,-0.22 -0.55,-0.46 -0.69,-0.6 -2.53,-2.74 -1.75,-2.4 -2.15,-5.53 -0.03,-0.21 -0.1,-0.66 -0.13,-0.83l-0.42 -1.69c-10.92,5.83 -12.82,5.68 -8.15,19.91 1.35,4.09 2.32,-0.64 0.33,4.07 -3.36,1.56 -2.53,-0.32 -8.22,0.7 -14.83,2.69 -6.48,4.24 -15.23,11.81 -3.49,3.02 -7.33,3.76 -9.21,5.28 -4.24,3.39 1.32,2.32 -7.3,7.48 -5.1,3.06 -3.93,3.32 -9.46,0.33l-2.24 6.27c-6.55,0.61 -5.9,-2.42 -14.41,1.2 3.09,6.77 8.79,3.44 14.58,11.67 3.21,4.54 3.69,9.94 1.89,15.63l-2.26 3.89c-2.84,1.01 -14.65,-0.18 -18.86,-0.57 -13.8,-1.27 -7.52,-0.86 -18.25,2.31 2.1,9.79 4.45,17.07 -1.95,25.45 1.56,6.83 5.07,2.2 2.25,13 13.76,-2.09 8.71,-1.08 15.69,5.56 5.22,-0.82 -0.52,0.45 4.58,-2.24 2.59,-1.36 1.19,-1.13 4.44,-1.65 3.93,-0.61 6.46,0.77 9.52,-1.05 5.07,-3.01 7.53,-9.08 11.96,-10.8 -2.15,-3.74 -3.72,-3.94 -0.8,-8.27 4.94,-7.35 7.54,-6.37 13.53,-10.27 4.93,-3.22 1.74,-3.15 2.19,-7.35 0.91,-8.39 11.27,-1.55 15.16,-1.85 1.81,-0.14 9.89,-6.43 13.49,-8.13 10.05,3.89 7.16,12.05 18.76,18.26l4.77 2.03c0.21,0.12 0.48,0.31 0.68,0.44l3.16 2.31c3.33,2.38 8.06,5.04 8.14,9.68 0.13,8.23 -10.52,5.36 -15.18,5.99 -3.23,0.44 -0.41,0 -2.09,0.76l-1.13 0.89c1.82,1.78 10.15,6.79 13.62,7.24 1.52,-4.4 -0.04,-2.94 1.08,-5.77 2.12,-5.35 0.27,-1.07 2.94,-2.36 2.86,-1.36 4.3,-4.62 6.34,-6.96l-1.11 -1.62c-0.59,-0.99 -4.11,-4.8 0.45,-5.92l6.36 1.88c0.07,-0.19 0.41,0.01 0.58,-0.11 0.32,-3 -3.31,-4.41 -6.49,-5.97 -5.95,-2.91 -5.34,-1.07 -5.28,-5.68 -13.14,-0.34 -7.6,-5.61 -13.94,-10.96 -3.56,-3 -9.55,-7.69 -0.34,-12.23l5 6.33c6.84,6.24 10.2,9.55 18.75,12.76 9.31,3.5 6.05,4.24 7.08,12.35 0.51,3.98 1.75,7.33 6.43,9.02 -0.47,3.55 -0.86,3.76 -1.27,6.66l3.04 -1.27c0.05,-0.19 0.33,-0.09 0.5,-0.08l3.18 9.44 7.35 1.88 -1.46 -5.26 4.18 -2.25c5.45,-3.71 1.69,-4.82 -1.02,-7.89l-1.54 -1.85c-2.36,-3.08 -2.86,-3.59 -3.27,-7.29 6.25,2.33 1.06,2.43 6.77,3.28l0.42 -5.23c5.38,0.65 4.76,-1.19 12.03,1.44 -2.22,2.77 -2.57,7.22 -2.42,8.8 2.74,0.81 2.56,-0.55 3.64,-2.28 0.07,3.62 -0.29,1.15 0.72,4.26l-4.43 2.08c-0.12,-0.24 -0.54,0.22 -0.77,0.37 2.59,1.71 2.37,1.32 6.52,1.73 -0.25,0.29 -0.59,0.61 -0.81,0.81 -0.22,0.19 -0.53,0.53 -0.79,0.75l-3.47 2.03c3.61,-0.33 7.18,-1.67 8.66,4.94l-0.06 0.45c8.83,0.2 7.65,5.31 12.3,2.8 4.01,-2.17 0.9,-7.37 10.31,-0.35 5.46,4.07 7.83,-0.02 10.5,-1.58 3.9,-2.29 0.49,-0.68 4.5,-0.33 2.84,0.26 2.18,-0.12 4.69,-1.07 -3.2,9 0.65,9.22 -2.32,17.28 -2.07,5.59 -3.78,12.54 -6.75,16.81 -12.32,3.46 -10.34,-6.16 -21.93,0.75 -4.41,2.63 -4.62,1.44 -10.07,-0.42 -3.93,-1.33 -8.43,-1.66 -11.95,-2.78l-5.18 -2.3c-5.28,-1.67 -10.05,-6.3 -14.94,-5.39 -4.33,0.8 -7.29,2.89 -7.63,6.28 -0.72,7.07 3.87,3.16 -2.96,9.72 -4.63,-0.72 -4.21,-2.49 -8.89,-4.45 -3.81,-1.58 -5.97,-0.92 -9.47,-2.81 -4.09,-4.99 0.87,-3.64 -5.69,-6.76 -6.01,-2.89 -11.89,-0.7 -17.01,-5.56 -6.8,-6.45 1.06,0.89 -6.02,-2.72 1.26,-6.57 3.09,-0.97 4.8,-7.29 1.09,-4 -1.09,-3.69 -2.63,-7.21l2.97 -4.52c-2.9,-1.08 -1.92,1 -4.56,-0.78 -5.24,-3.52 -3.58,1.14 -12.55,0.62 -5.16,-0.3 -4.24,-0.46 -9.1,0.64 -5.73,1.3 -4.73,-0.62 -11.04,0.11 -9.77,1.11 -14.31,3.21 -22.26,6.93 -3.43,1.62 -4.59,3.91 -9.34,3.51l-8.55 -0.21c-4.08,-0.31 -3.69,-3.47 -7.58,-3.71 -6.22,9.15 -0.23,8.72 -11.84,14.73 -5.06,2.64 -9.16,10.08 -9.13,16.14 0.08,17.14 -12.79,13.71 -17.39,20.08 -3,4.17 -0.09,2.43 -5.14,7.39 -3.79,3.71 -2.25,4.11 -4.21,9.25 -1.53,4.02 -3.49,4.18 -5.33,7.98 -1.73,3.6 -2.93,6.54 -4.35,9.28 -5.07,9.77 1.23,5.96 1.88,12.37 0.3,2.97 -0.72,0.96 -0.12,5.24 0.57,4.15 2.11,4.39 1.29,10.09 -0.99,6.82 -2.5,13.69 -6.99,18.12 6.67,5.26 0.96,11.89 5.65,16.75l11.93 12.73c5.42,6.21 3.2,12.65 8.37,16.19 4.22,2.88 3.29,1.67 7.27,5.12 3.5,3.03 3.33,2.34 5.92,5.35 15.2,17.67 14.93,-2.15 36.23,4.22 4.77,1.42 3.58,1.67 8.32,-0.62 34.85,-16.8 26.77,-5.65 36.07,5.1 4.53,-0.44 12.35,-2.92 15.77,0.27l3.61 4.41c1.57,3.56 0.87,6.01 -0.05,9.82 -0.84,3.52 -1.01,5.15 -1.33,7.99 -0.68,6.12 -2.97,5.42 -2.79,10.19 0.3,8.23 11.88,17.67 15.77,24.89 1.86,5.13 6.91,19.12 5.99,23.68 -1.82,9.03 8.02,13.29 -0.02,23.68 -3.96,5.13 -3.43,5.69 -4.78,12.04 -5.42,25.57 -3.27,14.9 4.57,36.41 1.43,3.94 4.46,8.75 5.3,11.57 1.02,3.43 0.45,9.46 1.42,14.47 0.99,5.04 1.01,9.34 2.32,14.38 1.17,4.49 15.36,25.82 13.48,34.06 -0.86,3.73 -1.94,-0.17 -0.63,4.74 2.32,8.7 0.84,5.11 3.04,6.27 8.7,4.65 0.7,3.81 9.57,1.22 4.98,-1.45 8.81,-2.9 13.89,-2.67 5.25,0.22 2.9,1.16 8.24,-0.86 1.69,-0.65 0.19,-0.12 2.4,-0.93 0.34,-0.13 1.36,-0.45 1.7,-0.58 9.33,-3.5 11.91,-9.93 14.93,-13.19 10.81,-11.74 4.47,-6.93 9.17,-13.19 5.08,-6.77 5.55,-2.05 8.26,-14.4 1.96,-8.95 -3.08,-8.63 6.76,-13.39 8.15,-3.93 7.11,-3.85 7.89,-12.17 0.88,-9.31 -2.48,-12.55 -2.71,-17.9l13.99 -15.78c7,-6.16 9.63,-1.86 15.91,-13.21 3.19,-5.77 1.08,-16.34 1.59,-23.66 0.61,-8.83 2.06,-3.54 -2.28,-10.62 -1.89,-3.09 -2.26,-7.67 -2.75,-11.41 1.06,-0.66 1.4,-0.79 2.85,-1.53l-2.22 -5.36c-2.1,-11.03 -5.78,0.96 2.91,-19.21 7.9,-18.32 3.1,-3.18 10.38,-15.4 12.54,-21.06 20.04,-18.66 29.94,-32.94l17.27 -33.24c1.64,-4.67 4.84,-10.61 1.77,-16.05 -5.11,0.71 -0.13,-0.19 -4.73,1.94 -6.27,2.9 -9.15,1.7 -13.87,3.18 -3.72,1.15 -13.48,4.84 -16.19,3.61 -4.15,-3.48 -2.66,-4.05 -6.83,-7.75 4.09,-2.21 2.43,1.12 2.41,-5.5 8.44,0.53 5.75,-0.14 11.31,-3.28 1.94,-1.09 8.01,-2.53 10.92,-3.79 2.62,-1.13 2.93,-0.84 5.45,-2.38 11.99,-7.32 7.04,-3 13.79,-6.46 7.42,-3.8 0.5,-4.11 6.72,-7.81 2.99,-1.77 8.18,-2.16 10.16,-2.88 5.58,-2.04 0.23,-0.1 3.51,-3.59 2.54,-2.7 2.58,-0.7 5.69,-4.39 0.24,-0.29 0.77,-1.41 1.39,-1.99 2.29,-2.16 1.18,-1.31 4.94,-1.92 -1.38,-9.01 0.61,-7.05 4.36,-11.22 2.88,-3.21 3.97,-5.38 5.3,-9.88 -7.87,-6.43 1.46,-3.49 -11.84,-8.91 -6.61,-2.68 -5.45,-6.72 -7.56,-12.77 -5.65,3.38 -5.62,8.75 -12.71,10.41l-12.41 -2.02c-1.97,-1.6 -0.44,0.24 -2.26,-2.25 -2.23,-3.03 -2.14,-4.74 -2.99,-8.08 -0.78,-3.06 -0.01,-2.82 -4.28,-7.06 -5.48,-5.45 -4.22,-7.33 -7.81,-12.79 2.07,-1.59 3.09,-3.57 5.46,-4.1 8.85,-1.95 8.01,10.39 14.11,14.15 3.13,1.92 2.82,1.51 6.03,3.97 2.71,2.08 3.22,2.57 6.44,3.39 8.09,2.08 8.41,-2.26 13.53,-2.9l2.8 8.3c27.06,7.34 24.43,3.11 46.6,2.78 11.1,16.29 8.46,7.73 10.09,27.96 5.96,73.92 -8.35,153.41 -39.48,218.62 -8.32,17.46 -16.54,33.25 -26.33,48.9 -8.31,13.3 -37.32,53.52 -48.63,63.61l-58.06 53.08c-58.87,45.62 -137.56,77.62 -212.28,86.29 -65.59,7.61 -134.84,1.55 -196.64,-20.35 -10.54,-3.73 -46.59,-16.21 -51.28,-22.52 0.71,-6.13 0.87,-0.72 2.58,-5.14 1.57,-4.04 -0.26,-1.87 1.17,-5.45 2.59,-6.51 5.08,1.08 3.57,-9.78 -4.35,-2.49 -17.17,-5.85 -7.06,-12.66 2.8,-1.88 2.77,3.07 3.11,-3.92 0.14,-2.75 -0.96,-2.5 -0.79,-4.57 0.51,-6.08 4.86,-1.18 4.76,-8 -3.41,-1.8 -2.49,0.29 -6.61,-0.9l-2.86 -7.48c5.65,-0.04 6.44,4.29 12.37,0.58l-0.37 -10.85c11.07,0.13 20.57,-1.3 19.61,-13.03 -2.31,-3.96 -1.08,-0.29 -3.05,-3.89 -1.98,-3.61 0.25,-1.44 -1.98,-4.75 -2.2,-3.29 -4.77,-1.64 -6.26,-6.23l9.58 3.91c13.6,5.26 12.47,-7.49 20.58,-18.57 3.05,-4.15 2.25,-5.65 3.74,-10.84 1.73,-6.07 3.98,-4.47 4.65,-9.82 1.13,-9.16 -7.09,-11.36 4.08,-21.89 3.83,-3.62 3.43,-1.37 9.36,-5.35 3.7,-2.49 4.97,-2.59 12.59,-2.58l8.09 -17.99 1.17 -39.66c3.09,-5.01 3.96,-3.2 6.35,-10.12 3.23,-9.38 16.62,-19.39 10.31,-30.29 -2.23,-12.11 -1.52,-8.35 -10.36,-11.18 -3.75,-1.21 -5.85,-5.34 -10.18,-8.79 -6.67,-5.34 -4.9,-3.34 -14.17,-4.62 -8.07,-1.13 -5.52,-3.69 -14.33,-2.75 -2.5,-6.86 -6.66,-8.13 -13.41,-10.2 -11.53,-3.53 -6.17,-2.34 -16.26,-7.34 -1.29,-13.38 0.89,-3.39 -4.56,-12.26 -3.03,-4.92 -0.43,-7.32 -4.19,-11.58 -13.2,-14.98 -21.94,-4.83 -33.09,-13.96 -6.21,-5.08 -2.21,-6.41 -11.77,-11.68 -5.59,-3.07 -0.84,0.65 -3.87,-3.96 -3.62,-5.49 -4.69,-2.99 -9.44,-6.42 1.16,-2.66 -0.7,-0.94 3.78,-2.55 -10.31,-0.77 -9,-0.21 -16.51,3.52 -8.71,-2.27 -2.02,-4.34 -14.59,-2.28 -0.22,-0.25 -0.43,-0.62 -0.55,-0.81 -4.31,-6.16 -6.11,-4.12 -10.47,-9.37 -1.4,2.31 -0.63,9 -9.04,6.14 0.39,-7.22 3.82,-0.26 2.75,-7.3 -5.39,-0.49 -3.23,0.33 -5.51,2.5 -4.52,4.28 -10.74,4.05 -15.63,6.77 -0.92,3.38 -1.09,6.68 -2.65,8.65l-4.6 5.68c-0.07,-0.17 -0.27,0.48 -0.41,0.73 -11.85,-15.9 -14.77,-3.96 -21.23,-3.65 -4.78,-1.32 -12.79,-7.88 -13.76,-13.65 -0.55,-3.34 2.57,-17.57 2.42,-23.18 -12.62,-9.94 -15.74,-1.36 -28.58,-4.81 3.51,-3.24 5.1,-10.86 6.52,-16.17 0.97,-3.61 0.96,-6.46 2.32,-9.08 1.48,-2.87 3.93,-3.11 2.01,-7.15 -4.67,-1.02 -12.31,0.19 -16.95,2.61 -6.52,5.93 5.16,10.68 -17.75,15.83 -5.56,1.24 -10.88,-1.35 -13.52,-6.12 -6.48,-11.71 -8.66,-20.51 -3.38,-33.31 2.57,-6.22 0.73,-4.35 1.24,-10.13 0.61,-6.97 5.85,-7.57 10.6,-10.68 6.12,-4.01 6.33,-6.85 16.41,-4.78 7.66,1.57 2.75,2.35 8.6,2.62l7.83 0.14c-1.91,-4.47 -2.71,-1.19 0.08,-7.34 3.33,-0.17 7.96,-0.41 11.31,-0.49 6.39,-0.14 4.91,1.39 8.89,4.08 3.4,-1.06 2.6,-1.48 5.61,-2.65 8.53,6.81 3.34,7.85 5.45,15.75 1.22,4.54 3.61,7.52 6.14,10.77 1.3,1.65 1.25,1.7 2.55,2.67 3.31,-1.93 1.54,0.77 3.28,-4.01 4.59,-12.58 -9.6,-24.86 -0.84,-36.73l14.3 -11.45c1.56,-0.75 0.53,0 2.27,-1.06l13.78 -8.61c-0.06,-8.32 -4.62,-9.75 -0.58,-16.92l0.45 6.73c2.68,-7.28 6.51,-4.6 3.86,-12.28 3.31,1.04 3.17,1.81 5.79,-1.76 4.82,-6.59 0.78,-4.41 9.03,-7.96 4.2,-1.82 2.57,-1.88 4.95,-3.03 5.06,-2.43 6.46,0.17 9.78,-4.06 -1.97,-1.05 -2.15,4.04 -3.54,-2.25 -1.44,-6.47 7.51,-9.08 12.02,-11.13l19.91 -8.71c-0.96,3.95 -2.34,2.65 -5.08,4.53 -4.99,3.45 -2.65,9.05 2.71,6.03 5.05,-2.87 5,-4.31 11.45,-6.61 5.91,-2.1 11.9,-5.1 16.91,-8.02 -0.32,-0.55 -1.19,-1.74 -1.28,-1.89 -0.1,-0.18 -0.28,-0.5 -0.39,-0.69l-1.61 -3.53c-1.2,1.14 -2.63,2.16 -3.9,3.66l-2.38 3.37c-0.08,-0.17 -0.3,0.48 -0.45,0.71 -3.96,-0.07 -6.5,0.5 -10.11,-1.35 -2.56,-1.31 -4.3,-3.35 -3.95,-6.47l1.31 -5.67c2.51,-5.29 2.88,2 3.75,-5.74 -10.31,-3.55 -19.31,3.79 -26.89,6.87l10.4 -7.66c3.93,-1.94 1.12,-2.2 5.41,-4.72 4.58,-2.65 19.93,-1.82 24.62,-1.76 13.87,0.22 11.11,-5.47 19.7,-7.88 9.63,-2.72 11.74,-2.56 12.43,-13.64l-6.63 -2.13c-0.78,-2.94 0.14,-1.67 0.2,-3.65 0,-0.18 0.09,-0.28 0.06,-0.41 -3.29,-1.67 -8.21,-2.35 -11.18,-4.29 -0.98,-0.64 -2.85,-2.78 -3.48,-4.69 -0.56,-1.66 -0.58,-3.82 -1.01,-5.68 -1.47,-6.39 -7.72,-10.28 -10.02,-18.91 -6.49,3.19 -5.95,7.56 -11.67,11.08 -6.8,4.18 -8.75,1.35 -13.73,-3.55l3.05 -9.41c-8.6,1.75 -7.57,-1.42 -12.53,-4.8 -5.4,-3.69 -6.96,-0.56 -14.56,-1.05 -11.27,-0.73 -10.23,-2.01 -12.53,8.66l-0.19 3.85c-0.29,6.26 -3.16,5.22 -6.77,9.89 0.92,0.84 0.75,0.54 2.13,1.49 9.45,6.44 3.29,14.46 -4.95,18.94 -4.29,2.34 -3.97,1.39 -8.41,2.85 -0.8,5.72 4.44,15.66 -3.04,19.11l-1.23 0.49c-2.64,1.06 1.12,0.04 -3.24,1.27 -13.3,-15.41 -3.63,-10.83 -5.14,-22.04 -8.46,-0.6 -15.82,0.03 -22.83,-4.25 -8.21,-5 -10.72,-6.02 -20.93,-3.73l-0.78 -9.48 -6.62 -1.28c2.52,-10.86 11.97,-17.7 20.89,-22.07 7.87,-3.86 6.2,-5 10.56,-7.32 3.71,-1.96 5.41,-0.75 9.37,-3 5.31,-3.03 7.24,-7.34 13.29,-10.47 -2.01,8.67 -8.74,12.54 -10.01,13.86 11.69,-1.62 4.77,2.27 8.84,1.85 3.48,-1.71 6.66,-4.25 10.1,-6.02 5.4,2.18 7.23,4.51 13.11,0.61 -0.66,-0.63 -0.92,-0.53 -2.03,-1.25 -4.8,-3.05 -1.7,-2.13 -6.52,-4.35 -12.08,-5.56 -3.53,-2.24 -9.52,-6.04 -1.4,1.17 1.01,0.74 -3.97,1.34 0.21,-0.29 0.71,-1.55 1.21,-1.9l-2.92 -1.42c5.09,-0.41 3.23,-1.14 7.66,0.83 4.97,2.23 -0.92,1.19 5.22,2.98 0.59,-1.3 3.59,0.55 -2.08,-3.27l7.78 -2.46c2.95,-1.63 4.89,-2.85 8.17,-4.14 -1.91,-9.06 2.07,6.6 -1.2,-2.93 -2.86,-8.31 6.01,-1.66 3.97,-9.09 -0.99,-3.6 0.66,0.58 -2.74,-1.96 6.08,-5.27 5.86,3.01 14.18,-2.28l7.14 -2.12c1.15,2.9 0.85,0.4 1.01,2.85 0.12,1.84 -1.54,-0.91 -0.31,2.38 3.77,-1.49 2.38,-3.63 6.24,-0.83 -2.63,1.65 -2.02,0.32 -4.83,2.24 2.7,1.49 1.6,-2.23 9.62,4.02l-3.07 0.49c-2.27,-2.94 -4.37,-1.65 -8.35,-1.14 -1.74,2.54 -2.44,2.29 -3.23,5.61 6.49,2.29 9.44,-1.81 10.55,-3.17l1.03 -1.3 5.47 1.23c1.56,-4.85 -0.59,5 -0.03,-3.08 0,-0.07 -0.02,-0.36 0.07,-0.51 4.13,1.32 3.33,1.3 4.27,5.71 -3.24,2.84 -6.72,5.24 -11.45,6.71 1.39,2.78 0.74,1.27 1.39,2.38 1.13,1.95 0.21,-0.08 1.07,1.85 -8.76,1.21 -15.71,1.03 -18.65,2.76 -2.09,1.23 -2.68,2.17 -3.81,4.26 7.76,5.27 12.78,-4.44 23.5,2.38 1.02,0.65 0.92,0.69 2.21,1.29 2.92,1.32 1.13,0.09 1.56,0.86 4.61,8.17 3.69,3.24 8.86,4.58 2.1,0.54 14.22,5.01 15.83,1.9 0.27,-2.42 -7.82,-5.94 -10.18,-8.85 7.83,2.07 11.98,4.95 16.82,6.84 0.7,-1.71 -1.72,-2.56 4.17,-6.76 -0.52,-5.86 -3.59,-5.93 -8.53,-9.14 -2.69,-1.74 -0.97,-1.77 -4.16,-3.69 2.23,-0.82 1.25,-0.71 2.27,-1.39 3.04,-2.01 -2.35,0.33 2.88,-1.93 8.66,3.72 0.88,4.18 12.35,7.37 1.52,-1.64 1.7,-2.75 2.76,-3.59 1.69,-1.32 1.32,-0.21 3.6,-1.48 1.63,-0.9 5.67,-5.29 6.5,-6.35 -3.46,-2.98 -14.76,-6.33 -18.97,-7.4 -4.07,-1.04 -1.37,-1.78 -6.31,-1.59 -0.68,-6.5 -0.24,-2.73 5.4,-4.47 -4.53,-4.66 -1.18,-0.11 -1.55,-4.85 -0.44,-0.24 0.51,-2.98 -4.9,0.12 -0.14,-0.98 0.31,0.4 0.35,-0.99 0.07,-2.45 1.29,0.51 -0.35,-2.29 -14.71,-1.99 -5.9,-2.58 -12.58,-4.08 -4.23,-0.94 -3.78,0.7 -8.02,-1.02 -14.73,-5.99 -4.19,-10.94 -22.19,-8.83 -6.28,0.74 -2.82,-1.47 -5.91,3.39 -1.56,-5.53 -6.66,-1.61 -16.39,0.7 -2.39,-5.08 -3.2,-2.89 0.37,-5.18 6.72,-4.31 18.18,-0.92 24.49,-4.94 3.54,-2.27 0.69,0.66 2.81,-3.46 -3.11,-2.53 -8.02,-1.88 -12.68,-1.8l3.87 -4.32zm-22.29 87.09c4.48,-0.78 3.53,-0.13 4.98,-4.96 -3.68,0.88 -4.73,1.02 -4.98,4.96zm380.14 122.44c5.01,1.22 2.49,1.98 5.56,-0.74 -0.52,-1.09 -0.98,-2.07 -1.85,-2.19 -2.99,-0.36 -2.98,1.47 -3.71,2.93zm-386.17 -129.85l-7.28 0.92c-0.82,0.87 -4.99,4.69 -0.86,4.44 3.56,-0.24 6.14,-2.7 8.14,-5.36zm63.54 73.46c4.3,2.15 6.35,5.02 12.13,3.36 -3.48,-4.09 -8.88,-4.33 -11.49,-3.69 -0.14,0.04 -0.43,0.21 -0.64,0.33zm-91.46 188.55c2.28,2.33 3,4.28 10.58,2.25 -2.6,-3.73 -5.77,-4.8 -10.58,-2.25zm564.63 -103.25c2.85,1.94 3.61,2.63 7.13,0.13 3.37,-2.4 -0.14,0.63 2.38,-3.14 0.11,-0.17 0.3,-0.49 0.4,-0.66 1.45,-2.13 0.17,-0.2 1.05,-1.36 -7.36,3.28 -8.27,0.21 -10.96,5.03zm-119.56 -47.34c0.4,3.02 1.15,4.85 3,6.94l-4.81 3.03c1.87,5.86 0.95,5.04 0.69,11.21 3.5,0.49 0.6,0.18 2.6,-0.05 2.61,-0.31 -1.8,-0.36 3.85,-0.6 2.09,-17.76 -1.59,-7.69 -0.71,-17.55 0.27,-3.07 0.4,-2.91 0.01,-6.46 -1.6,2.53 -2.1,1.29 -4.63,3.48zm-409.93 154.45c2.99,-3.47 3.24,-3.76 8.32,-4.28 8.68,-0.86 4.04,4.27 7.86,-1.47 -3.55,-3.4 -9.6,-7.62 -16.79,-7.57l-1.09 9.98c1.63,6.46 -0.16,0.54 1.7,3.34zm-68 -24.32c7.23,0.61 8.16,-4.37 15.24,-4.72 2.5,4.56 -9.47,-1.51 10.93,5.24 4.89,1.62 4.69,-0.02 6.25,2.99 2.2,4.23 -1.44,1.82 -3.3,1.9 3.91,1.83 5.09,1.29 10.16,1.34l-2.99 5.04c4.07,-0.59 5.87,-0.78 9.85,-0.75 3.11,0.01 5.31,0.08 8.38,-1.8 -3.67,-3.5 -8.02,-4.33 -13.03,-7.11 -2.97,-1.65 -10.47,-12.26 -28.24,-9.69 -11.32,1.64 -7.5,3.93 -13.25,7.56zm396.15 -203.62l-7.31 0.47c-0.01,4.83 -0.97,4.14 1.54,6.72l1.97 1.81c-7.04,5.18 -5.31,4.78 -5.38,7.31 6.4,3.55 11.74,-1.02 19.45,-3.23 2,-4.79 1.07,-3.28 1.76,-7.8 0.87,-5.58 1.84,-2.86 3.2,-6.79l-2.63 -3.85c-8.4,-0.77 -11.98,-1.74 -12.6,5.36zm-249.64 46.75c0.24,0.14 0.67,-0.05 0.79,0.26 0.12,0.3 0.63,0.2 0.8,0.22 1.25,0.2 0.68,0.2 2.45,0.27l15.67 -0.12 -3.28 3.46c-0.15,0.14 -0.46,0.4 -0.66,0.64 4.15,-0.37 4.58,-1.92 7.66,-3.44 4.83,1.81 -0.74,-0.12 2.21,2.54l3.59 1.82c0.76,-0.89 5.85,-6.28 1.36,-7.99 -1.2,-0.45 0.57,0.03 -1.01,-0.05l2 -3.16c-4.05,-2.23 0.37,2.45 -3.72,-7.6l-6.5 1.56c-3.39,-3.15 2.27,-0.01 -4.55,-4.12l6.17 -8.34c-9.18,1.58 -9.45,5.84 -19.65,18.16l-0.72 1.91c-0.03,0.08 -0.07,0.37 -0.11,0.45 -1.36,3.29 -0.25,-0.9 -2.5,3.53zm198.09 -113.94l-3.46 -4.55c-0.95,-0.78 -2.81,-1.57 -4.63,-1.28 -2.74,0.42 -5.57,3.84 -8.28,5.14l7.94 1.74 -6.34 2.8c1.15,0.58 8.37,-0.03 7.85,3.34 -0.82,5.28 5.46,-4.56 -1.93,2.33 -0.16,0.15 -0.54,0.36 -0.79,0.58 15.56,-0.13 11.8,4.65 24.35,0.15 6.17,-2.21 16.25,-4.7 18.51,-9.66 -1.41,-3.58 -6.57,-6.81 -9.52,-7.31 -3.9,-0.65 -2.98,0.86 -6.85,1.88 -2.88,0.77 -5.64,-0.15 -8.86,0.49 -0.66,0.13 -1.4,0.33 -2.08,0.49l-3.86 1.5c-3.21,2.55 -0.11,-0.12 -2.05,2.36zm76.93 40.55l-7.44 0.39c-1.29,2.37 -1.77,3.58 -3.19,4.95 -3.63,3.5 0.21,-1 -4.41,2.1 2.61,3.73 0.77,3.16 2.11,7.25 0.47,1.43 2.05,-2.59 0.14,1.46 -0.06,0.12 -0.27,0.41 -0.34,0.54 -0.1,0.17 -0.37,0.49 -0.49,0.66l-1.21 1.55c7.41,-1.1 1.27,3.76 8.41,-0.66 -0.83,4.67 -0.52,2.33 -2.08,5.47l7.56 0c0.61,5.6 1.86,2.34 1.74,8.06l-7 0.71 0.4 3.24c0.06,0.15 0.22,0.48 0.28,0.63l1.11 2.25 -5.62 3.09 3.18 1.55c1.08,0.25 3.32,0.45 5.36,0.6l-10.96 9.36c8.3,0.09 9.55,-3.86 16.9,-3.72 3.69,0.07 13.2,-0.45 16.87,-2.85 1.27,-1.43 -0.27,-0.99 -0.17,-2.74l0.36 -1.8c1.26,-3.01 1.78,0.08 2.6,-5.36 -2.64,-2.5 -1.89,-2.07 -6.72,-1.84 -0.91,-9.01 -5.7,-9.68 -7.33,-11.96 -2.58,-3.61 0.95,1.75 -0.79,-1.46 -0.94,-1.73 -0.83,-4.84 -7.45,-5.85 3.26,-1.04 0.77,0.5 3.24,-3.23 1.44,-2.18 2.29,-3.95 3.21,-6.74l-9.75 -0.18c0.42,-1.95 4.14,-3.83 6.85,-9.69 -4.14,0.43 -3.39,1.69 -5.37,4.22zm259.85 457.79c4.01,2.05 -0.67,2.26 2.93,1.69 2.25,-5.1 -0.43,-18.84 -3.52,-23.35 -6.48,5.93 1.92,2.35 -5.69,8.83 -0.25,0.21 -0.95,0.86 -1.42,1.59 -1.87,2.92 -2.1,8.19 -9.42,12.07 -5.31,2.82 -6.79,1.2 -9.43,5.3 -5,7.73 0.67,15.83 -2.36,23.17 -5.14,12.45 -6.34,3.33 -4.81,19.71 0.73,7.88 1.1,15.73 11.1,11.46 7.95,-3.4 7.59,-9.27 10.43,-17.65l11.04 -32.73c2.58,-7.24 1.06,-3.19 1.15,-10.09zm-692.47 -495.79c-3.6,1.14 -15.81,17.34 -18.74,21.41 -20.8,29.02 -29.87,40.81 -47.48,75.98 -61.92,123.63 -65.15,280.44 -7.46,402.47 18.53,39.18 38.85,73.12 62.38,101.47 12.69,15.3 25.28,30.09 39.1,42.84 19.82,18.3 23.81,22.24 44.66,38.35 58.29,45.03 142.47,82.85 236.7,92.14 130.5,12.84 247.98,-27.7 342.43,-103.13 13.33,-10.65 42.93,-38.02 52.61,-49.46 1.8,-2.12 2.62,-3.63 4.45,-5.69l23.73 -29c6.11,-8.68 11.41,-15.4 17.09,-24.44 44.72,-71.26 74.47,-149.93 75.91,-252.89 0.68,-48.98 -7.15,-98.97 -21.04,-142.83 -12.37,-39.05 -32.13,-84.1 -52.51,-113.18 -22.13,-34.86 -50.94,-68.9 -80.56,-95.96 -20.65,-18.87 -55.26,-44.13 -78.48,-57.33 -66.92,-38.04 -153.9,-68.18 -246.6,-64.25 -90.61,1.84 -178.8,29.44 -252.11,78.94l-12.36 9.4c-5.5,2.05 -27.37,20 -32.83,25.03 -12.61,11.61 -43.29,37.64 -48.89,50.13zm255.81 -103.5c4.41,1.84 10.17,2.38 13.32,5.47 -9.02,-0.98 -14.18,-3.47 -23.94,-2.66 -0.87,1.89 0.66,2.16 0,3.53 -5.24,-0.77 -3.77,-1.55 -10.1,-1.34 -1.07,2.59 0.48,0.53 -1.13,3.19 -0.15,-0.22 -0.31,-0.84 -0.39,-0.67 -0.07,0.18 -0.33,-0.53 -0.44,-0.62 -4.77,-4.25 -21.19,1.22 -27.28,2.64 -8.19,1.94 -3.79,0.18 -6.68,5.29 -8.55,0.52 -21.94,3.6 -27.44,7.79l9.03 0.94c-1.77,6.37 -12.37,5.41 -17.72,7.03 -5.86,1.79 -14.69,3.54 -19.25,5.4 6.14,6.95 20.33,1.35 24.85,2.7 -1.73,0.79 -6.96,1.14 -9.05,1.68 -2.75,0.69 -7.39,0.78 -10.26,2.33 0.05,1.16 2.47,2.92 5.78,4.1 12.65,4.52 34.48,-7.87 45.46,1.87l2.85 2.78c1.32,1.54 1.46,1.22 1.49,3.75 0,0.28 -0.24,1.38 -0.25,2.04l1.07 6.03c1.06,5.23 -1.16,3.67 1.3,8.19 5.59,0.25 5.21,0.77 7.92,-2.22 2.93,2.88 4,2.2 5.81,5.72l-10.64 1.36c-1.6,1.55 -2.31,0.57 -3.1,3.55 -1.7,6.4 9.66,3.6 12.3,1.19 -0.03,-1.13 0.71,0.51 -1.21,-1.03l-2.74 -2.24c2.99,0.89 11.86,2.23 6.18,7.77 -4.2,4.09 -14.08,-3.76 -14.38,15.44 -0.13,7.86 2.29,3.65 4.17,10.8 1.02,3.82 -0.49,1.5 1.97,5.98 2.49,4.5 5.98,10.72 9.5,14.03 3.87,3.61 7.25,1.23 12.2,3.47 8.71,3.94 12.27,8.84 19.46,-10.03 2.61,-6.83 7.05,-5.92 9.81,-12.37 1.27,-2.99 1.74,-4.98 4.4,-7.02 0.19,-0.15 0.46,-0.35 0.66,-0.5 4.06,-2.9 9.53,-1.89 14.46,-3.47 2.41,-0.77 5.09,-2.51 7.48,-3.65 5.28,-2.58 7.54,-6.09 12.04,-9.3 5.99,-4.28 33.94,-5.51 49.72,-16.63 -8.11,0.32 -10.79,-1.36 -18.79,-0.32l5.32 -4.02c1.95,-2.13 -1.43,0 2.14,-2.41 8.06,4.35 -0.6,4.83 14.98,4.6l-0.44 -6.88c-4,-1.95 -10.94,-3.31 -12.6,-8.03 0.22,0.22 0.55,0.24 0.67,0.63 0.89,2.9 11.82,6.36 11.49,0.86 -0.25,-4.02 0.42,-0.59 -3.74,-3.6 16.21,-1.24 8.63,-4.31 12.47,-6.02 2.34,-1.03 4.75,-1.36 6.59,-1.98l-2.39 -1.09c-0.15,-0.07 -0.5,-0.22 -0.66,-0.3l-3.61 -3.58c2.31,0.4 2.59,1.08 4.92,-0.36 -0.27,-4.46 -1.67,-6.21 -4.91,-8.47 4.3,-1.42 5.72,-0.38 8.65,3.69l2.54 -6.44 -6.4 -0.98 3.22 -2.84 -6.48 -2.19c-3.12,-0.78 0.62,1.48 -1.91,-0.73 3.83,-4.88 0.62,-1.89 6.1,-4.2 8.59,-3.64 1.02,0.56 4.05,-4.91 7.39,-0.19 3.62,0.34 8.68,-2.39 8.15,-4.36 16.91,-5.95 24.75,-9.48 -7.77,-3 -17.05,-1.72 -23.96,0.23 -5.21,1.47 -7.62,-0.69 -11.28,0.08 -3.16,0.65 -5.54,2.91 -10.49,3.64 4.16,-2.45 4.27,-0.81 6,-5.41 -2.07,-0.84 -0.67,-0.69 -3.71,-0.75 -2.19,-0.05 -2.58,0.2 -4.51,0.85 -2.65,0.89 -3.25,2.67 -6.72,1.02 1.29,-3.87 7.35,-2.7 13.96,-5.2l-27.48 -4.41c-10.22,-0.16 -20.5,0.13 -30.49,1.22l-53.19 7.86z"/>
    <path class="fil0" d="M156.04 3479.99l104.84 0 0 -36.88 -65.91 0 0 -20.85 50.66 0 0 -37.08 -50.66 0 0 -20.66 65.91 0 0 -37.07 -104.84 0 0 152.54zm176.05 -76.27l-45.6 75.95 42.67 0.13 27.32 -42 27.39 42 42.67 0 -45.83 -76.08 45.86 -75.88 -42.67 0 -27.42 41.83 -27.32 -41.83 -42.67 0 45.6 75.88zm120.18 -39.01l38.85 0 0.38 115.09 41.9 0 -1.35 -115.09 38.75 0 0 -36.87 -118.53 0 0 36.87zm149.93 115.28l104.85 0 0 -36.88 -65.91 0 0 -20.85 50.65 0 0 -37.08 -50.65 0 0 -20.66 65.91 0 0 -37.07 -104.85 0 0 152.54zm136.11 -152.54l0 152.35 38.24 0 0 -79.78 88.72 79.78 8.37 0 0 -152.35 -38.36 0 0 79.97 -88.92 -79.97 -8.05 0zm172.36 0.57l0 151.78 43.67 0c28.29,0 52.39,-7.47 71.15,-22.24 14.23,-13.61 21.31,-31.67 21.31,-53.62 0,-21.94 -7.05,-40.03 -21.31,-53.71 -15.16,-13.22 -37.62,-22.3 -64.56,-22.3l-3.28 0 0 0.09 -46.98 0zm97.51 75.7c-3.45,25.68 -22.46,39.01 -52.69,39.01l-4.08 0 -0.36 -78.02 9.79 0c26.68,0 47.34,13.72 47.34,39.01zm107.02 76.08l0 -151.96 -37.07 0 0 151.96 37.07 0zm37.03 -152.35l0 152.35 38.23 0 0 -79.78 88.73 79.78 8.36 0 0 -152.35 -38.36 0 0 79.97 -88.92 -79.97 -8.04 0zm252.74 -0.78l-2.51 0c-23.43,0 -43.61,7.63 -60.02,22.69 -15.67,15.09 -23.62,33.44 -23.62,54.52 0,21.24 7.95,39.75 23.62,54.58 16.35,14.93 36.56,22.49 60.02,22.49 23.27,0 43.48,-7.62 60.08,-22.62 15.48,-14.74 25.43,-35.59 23.15,-64.2l-0.23 -2.96 -87.99 0 0 33.59 43.51 0c-7.4,10.59 -21.46,18.93 -38.23,18.93 -12.71,0 -23.2,-3.83 -32.02,-11.72 -8.98,-7.88 -13.36,-17.09 -13.36,-28.09 0,-11.01 4.38,-20.21 13.36,-28.03 8.91,-7.89 19.41,-11.71 32.02,-11.71 12.33,0 22.88,4.15 32.05,12.7l2.49 2.29 27.83 -26.42 -2.38 -2.31c-13.48,-12.5 -33.28,-22.76 -57.67,-23.4l-0.1 -0.33zm145.27 38.04l38.85 0 0.38 115.09 41.9 0 -1.35 -115.09 38.75 0 0 -36.87 -118.53 0 0 36.87zm149.9 115.09l37.07 0 0 -57.54 50.79 0 0 57.54 37.07 0 0 -151.96 -37.07 0 0 57.54 -50.79 0 0 -57.54 -37.07 0 0 151.96zm161.92 0.19l104.85 0 0 -36.88 -65.91 0 0 -20.85 50.65 0 0 -37.08 -50.65 0 0 -20.66 65.91 0 0 -37.07 -104.85 0 0 152.54zm283.01 -152.15l-37.34 78.26 -37.26 -78.26 -39.55 0 72.93 151.96 7.94 0 73.21 -151.96 -39.93 0zm108.34 151.96l0 -151.96 -37.07 0 0 151.96 37.07 0zm120.37 -153.13l-4.53 0c-23.49,0 -43.9,7.63 -60.76,22.69 -15.71,15.09 -23.62,33.41 -23.62,54.49 0,21.14 7.91,39.42 23.65,54.45 16.7,14.87 37.1,22.4 60.73,22.47 11.97,0 23.14,-2.07 33.5,-6.22 10.2,-4.25 18.8,-9.97 26.07,-17.18l2.34 -2.35 -26.67 -26.42 -2.51 2.31c-9.08,8.47 -19.76,12.59 -32.63,12.59 -12.78,0 -23.44,-3.77 -32.41,-11.53 -9.07,-7.81 -13.52,-17.02 -13.52,-28.03 0,-10.87 4.45,-20.08 13.52,-28.03 8.95,-7.78 19.56,-11.58 32.41,-11.58 12.64,0 23.33,4.11 32.57,12.58l2.47 2.32 26.71 -26.42 -2.41 -2.35c-12.87,-12.36 -31.57,-22.21 -55.04,-23.3l0.13 -0.49zm82.99 38.04l38.84 0 0.39 115.09 41.9 0 -1.35 -115.09 38.75 0 0 -36.87 -118.53 0 0 36.87zm153.17 -15.32c-15.67,15.17 -23.59,33.47 -23.59,54.55 0,21.15 7.92,39.43 23.63,54.43 16.48,14.8 33.82,22.33 57.18,22.4 23.34,0 40.68,-7.54 57.23,-22.4 15.77,-14.93 23.75,-33.21 23.75,-54.43 0,-21.14 -7.98,-39.45 -23.73,-54.55 -16.63,-15.06 -33.98,-22.72 -57.25,-22.72 -23.23,0 -40.58,7.66 -57.22,22.72zm86.41 26.37c9.01,7.88 13.42,17.05 13.42,27.99 0,11.07 -4.41,20.24 -13.42,28 -9.01,7.79 -16.7,11.55 -29.19,11.55 -12.67,0 -20.37,-3.76 -29.25,-11.52 -8.98,-7.82 -13.32,-17.02 -13.32,-28.03 0,-10.88 4.34,-20.08 13.32,-28.03 8.82,-7.79 16.51,-11.58 29.25,-11.58 12.55,0 20.25,3.79 29.19,11.62zm120.22 104.04l0 -59.38 45.28 59.38 45.12 0 -36.5 -54.52c7.12,-3.21 11.17,-6.53 16,-13.03 6.76,-9.14 10.23,-19.09 10.23,-29.58l0 -3.8c0,-17.05 -6.08,-26.09 -15.67,-35.3 -5.63,-5.31 -12.13,-9.27 -19.57,-11.87 -8.56,-2.58 -17.44,-3.86 -26.51,-3.86l-55.55 0 0.09 151.96 37.08 0zm21.82 -79.65l-8.11 0 0 -0.1 -13.81 0 0 -35.34 16.25 0c6.96,0 15.45,1.81 19.41,5.06 4.03,3.6 5.95,7.59 5.95,12.26 0,10.49 -9.49,18.12 -19.69,18.12zm121.96 14.86l0 64.79 41.7 0 0 -64.79 50.3 -87.17 -42.12 0 -29.03 48.91 -29.03 -48.91 -42.03 0 50.21 87.17zm179.76 -65.62c-15.67,15.17 -23.59,33.47 -23.59,54.55 0,21.15 7.92,39.43 23.63,54.43 16.48,14.8 33.82,22.33 57.18,22.4 23.34,0 40.69,-7.54 57.23,-22.4 15.77,-14.93 23.75,-33.21 23.75,-54.43 0,-21.14 -7.98,-39.45 -23.73,-54.55 -16.63,-15.06 -33.98,-22.72 -57.25,-22.72 -23.23,0 -40.57,7.66 -57.22,22.72zm86.42 26.37c9,7.88 13.41,17.05 13.41,27.99 0,11.07 -4.41,20.24 -13.41,28 -9.02,7.79 -16.71,11.55 -29.2,11.55 -12.67,0 -20.37,-3.76 -29.25,-11.52 -8.98,-7.82 -13.32,-17.02 -13.32,-28.03 0,-10.88 4.34,-20.08 13.32,-28.03 8.82,-7.79 16.51,-11.58 29.25,-11.58 12.55,0 20.25,3.79 29.2,11.62zm83.17 104.23l38.94 0 0 -57.73 50.65 0 0 -37.08 -50.65 0 0 -20.66 65.91 0 0 -37.07 -104.85 0 0 152.54zm257.93 -153.32l-4.53 0c-23.49,0 -43.9,7.63 -60.76,22.69 -15.71,15.09 -23.62,33.41 -23.62,54.49 0,21.14 7.91,39.42 23.65,54.45 16.7,14.87 37.1,22.4 60.73,22.47 11.97,0 23.14,-2.07 33.5,-6.22 10.2,-4.25 18.8,-9.97 26.07,-17.18l2.34 -2.35 -26.67 -26.42 -2.51 2.31c-9.08,8.47 -19.76,12.59 -32.63,12.59 -12.78,0 -23.44,-3.77 -32.41,-11.53 -9.07,-7.81 -13.52,-17.02 -13.52,-28.03 0,-10.87 4.45,-20.08 13.52,-28.03 8.95,-7.78 19.57,-11.58 32.41,-11.58 12.64,0 23.33,4.11 32.57,12.58l2.47 2.32 26.71 -26.42 -2.41 -2.35c-12.87,-12.36 -31.57,-22.21 -55.03,-23.3l0.12 -0.49zm88.62 153.13l37.07 0 0 -57.54 50.79 0 0 57.54 37.07 0 0 -151.96 -37.07 0 0 57.54 -50.79 0 0 -57.54 -37.07 0 0 151.96zm198.97 0l0 -59.38 45.28 59.38 45.12 0 -36.5 -54.52c7.11,-3.21 11.17,-6.53 15.99,-13.03 6.77,-9.14 10.24,-19.09 10.24,-29.58l0 -3.8c0,-17.05 -6.08,-26.09 -15.67,-35.3 -5.64,-5.31 -12.14,-9.27 -19.57,-11.87 -8.56,-2.58 -17.44,-3.86 -26.51,-3.86l-55.55 0 0.09 151.96 37.08 0zm21.82 -79.65l-8.11 0 0 -0.1 -13.81 0 0 -35.34 16.25 0c6.95,0 15.45,1.81 19.41,5.06 4.02,3.6 5.95,7.59 5.95,12.26 0,10.49 -9.49,18.12 -19.69,18.12zm133.28 79.65l0 -151.96 -37.08 0 0 151.96 37.08 0zm69.21 -52.13l-38.75 7.91 0.48 2.99c3.7,24.3 26.71,42.58 54.52,42.58 30.31,0 55.06,-20.82 55.06,-46.92 0,-21.89 -18.44,-36.62 -40.1,-42.1 -12.87,-3.28 -28.45,-6.49 -28.45,-16.54 0,-6.4 6.24,-11.65 13.61,-11.65 9.63,0 13.46,6.76 13.46,16.12l39.04 -7.88 -0.42 -2.96c-3.35,-24.04 -24.46,-42.55 -52.3,-42.55 -30.48,0 -52.78,20.93 -52.78,46.83 0,21.37 17.7,36.69 38.75,42.93 13.52,3.99 29.99,5.53 29.99,15.61 0,5.89 -8.3,11.65 -16.12,11.65l-1.96 0 -0.04 0c-7.27,-0.93 -13.99,-6.44 -13.99,-12.07l0 -3.95zm96.91 -62.96l38.85 0 0.38 115.09 41.9 0 -1.35 -115.09 38.75 0 0 -36.87 -118.53 0 0 36.87z"/>
    <path class="fil0" d="M1430.29 231.93l-22.86 191.49 -134.29 -138.31 -83.33 28.19 261.95 268.15 16.75 -5.67 45.91 -372.32 -84.13 28.47zm307.3 277.83l-75.99 -329.31 -80.34 18.54 75.99 329.31 80.34 -18.54zm181.23 -370.63l-10.01 1.27c-51.83,6.59 -94.71,29.14 -127.68,67.09 -30.42,37.7 -42.75,80.32 -36.84,126.83 5.93,46.65 28.52,84.75 67.44,113.49 41.03,28.13 88.15,39.02 140.28,32.55 26.42,-3.36 50.48,-11.04 72.17,-23.1 21.32,-12.24 38.67,-27.29 52.7,-45.23l4.52 -5.84 -66.27 -50.81 -4.89 5.82c-17.65,21.21 -40.06,33.3 -68.46,36.9 -28.19,3.59 -52.74,-1.73 -74.73,-16.33 -22.21,-14.71 -34.6,-33.77 -37.68,-58.05 -3.05,-23.99 4.17,-45.55 21.96,-65.63 17.56,-19.69 39.93,-31.04 68.25,-34.65 27.91,-3.54 52.63,2.55 75.38,18.63l6.12 4.42 51.52 -65.78 -5.98 -4.5c-31.87,-23.66 -75.88,-40.15 -127.95,-35.98l0.15 -1.1zm191.03 69.55l86.37 2.18 -5.61 255.88 93.16 2.36 3.46 -255.94 86.14 2.18 2.07 -82 -263.51 -6.66 -2.08 82zm330 -24.36c-38.82,29.05 -61.42,67.23 -67.33,113.74 -5.93,46.64 6.41,89.19 36.86,126.68 32.19,37.28 68.35,58.75 119.88,65.46 51.48,6.54 91.85,-5.22 132.52,-33.38 38.98,-28.52 61.71,-66.62 67.65,-113.41 5.93,-46.64 -6.54,-89.28 -37.02,-126.99 -32.49,-37.89 -68.61,-59.66 -119.95,-66.18 -51.26,-6.51 -91.68,5.52 -132.61,34.08zm183.25 82.38c17.67,19.92 24.83,41.39 21.76,65.53 -3.11,24.42 -15.41,43.43 -37.46,58.01 -22.06,14.66 -40.09,20.81 -67.63,17.3 -27.98,-3.55 -43.89,-14.01 -61.31,-33.61 -17.62,-19.77 -24.63,-41.3 -21.54,-65.57 3.05,-24.01 15.21,-43.09 37.26,-58.12 21.63,-14.7 39.67,-20.93 67.78,-17.36 27.69,3.52 43.6,14.06 61.14,33.82zm196.01 281.72l36.07 -127.03 60.8 154.54 96.52 27.4 -44.95 -138.79c17.17,-2.57 27.86,-7.2 42.14,-18.17 20,-15.45 33.48,-34.61 39.86,-57.06l2.3 -8.12c10.36,-36.5 2.84,-59.53 -12.08,-85.05 -8.82,-14.79 -20.33,-27.2 -34.65,-37.3 -16.75,-10.7 -34.97,-18.86 -54.38,-24.37l-118.83 -33.74 -92.11 325.17 79.31 22.52zm95.06 -157.15l-17.34 -4.93 0.05 -0.21 -29.53 -8.38 21.46 -75.6 34.77 9.88c14.87,4.22 31.95,13.24 38.45,22.6 6.41,10.15 8.12,19.86 5.28,29.84 -6.37,22.45 -31.31,33 -53.14,26.8zm228.44 115.84l-59.35 131.28 84.53 38.2 59.34 -131.27 181.8 -130.6 -85.37 -38.59 -103.63 72.54 -14.01 -125.73 -85.18 -38.5 21.87 222.67zm612.7 117.09l-8.22 -5.85c-42.58,-30.28 -89.39,-42.75 -139.37,-37.18 -47.91,7.1 -85.86,30.09 -113.03,68.3 -27.25,38.32 -36.46,81.65 -27.31,129.17 11.1,48.48 38.38,88.42 81.11,118.98 21.69,15.44 44.59,26.1 68.72,31.92 23.97,5.46 46.92,6.15 69.4,2.45l7.28 -1.22 -14.3 -82.28 -7.53 0.97c-27.36,3.64 -52.04,-2.66 -75.37,-19.25 -23.15,-16.47 -37.6,-37.02 -43.88,-62.66 -6.37,-25.86 -2.56,-48.27 11.62,-68.22 14.02,-19.71 33.94,-30.67 60.63,-33.38 26.26,-2.58 50.4,4.22 73.67,20.78 22.92,16.29 36.98,37.53 42.81,64.77l1.5 7.4 82.47 -13.46 -1.35 -7.37c-7.4,-38.99 -28.6,-80.94 -69.7,-113.16l0.85 -0.71zm143.61 166.18c-48.49,0.35 -89.33,17.67 -121.68,51.61 -32.44,34.03 -47.75,75.61 -45.48,123.84 3.8,49.12 20.18,87.86 57.68,123.82 37.56,35.8 77.04,50.29 126.48,51.74 48.3,0.17 89.2,-17.01 121.74,-51.15 32.44,-34.04 47.7,-75.76 45.53,-124.2 -3.67,-49.78 -19.83,-88.73 -57.29,-124.44 -37.41,-35.65 -77.08,-49.94 -126.98,-51.22zm98.65 175.02c2.41,26.52 -4.57,48.05 -21.36,65.67 -16.99,17.82 -38.16,25.81 -64.57,24.47 -26.45,-1.29 -44.61,-7.03 -64.71,-26.19 -20.41,-19.47 -27.02,-37.33 -29.41,-63.44 -2.45,-26.36 4.67,-47.85 21.56,-65.57 16.7,-17.5 37.81,-25.65 64.47,-24.67 26.14,0.99 44.35,6.68 64.86,26.24 20.2,19.26 26.76,37.17 29.16,63.49zm210.23 57.62l-266.41 209.35 50.94 64.83 98.14 -77.13 -37.46 153.88 158.14 -0.2 -98.1 77.07 50.95 64.84 266.41 -209.35 -10.48 -13.34 -269.62 4.52 67.97 -261.14 -10.48 -13.33zm288.12 374.86l-301.57 154.45 37.58 73.38 111.1 -56.89 -66.24 143.85 155.25 30.08 -111.03 56.87 37.58 73.38 301.57 -154.45 -7.73 -15.1 -265.5 -47.2 116.72 -243.28 -7.73 -15.09zm3.54 629.72c-6.08,-17.96 -6,-34.69 0.45,-51.15 6.59,-16.66 17.05,-27.08 31.9,-32.1l189.76 -64.21 -26.56 -78.51 -192.54 65.16c-35.93,12.15 -62.44,36.07 -78.9,71.19 -16.27,34.97 -17.23,74.36 -2.96,116.53 14.15,41.83 38.77,72.34 72.97,90.38 34.4,17.91 69.99,20.83 105.92,8.67l192.54 -65.16 -26.56 -78.5 -189.76 64.21c-31.26,10.58 -65.25,-13.97 -76.26,-46.51zm323 149.94l-333.54 59.57 14.95 83.7 174.66 -31.2 -139.98 225.44 3.28 18.32 333.54 -59.57 -15 -83.98 -175.09 31.27 140.33 -225.94 -3.15 -17.61zm-274.07 477l336.99 -25.63 -6.25 -82.21 -336.99 25.63 6.25 82.21zm261.11 23.38l2.18 86.37 -255.83 7.32 2.35 93.15 255.78 -9.46 2.17 86.14 82 -2.07 -6.65 -263.51 -82 2.06zm-122.58 418.82l-142.93 -18.16 -11.69 92.02 142.92 18.15 178.24 135.43 11.82 -92.94 -99.79 -77.76 116.06 -50.33 11.78 -92.73 -206.41 86.32zm-79.89 596.74c7.79,8.9 22.39,20.27 35.88,24.83 24.13,8.16 48.7,5.9 73.43,-9.15 25.56,-15.68 43.98,-39.3 54.4,-70.07l32.59 -96.34 -320.13 -108.32 -44.21 130.64c-11.53,34.1 -11.26,67.21 1.72,95.18 12.96,27.13 33.92,46.01 62.26,55.6 36.48,12.34 78.77,3.9 104.1,-22.51l-0.04 0.14zm-91.56 -102.54l17.77 -52.54 63.87 21.62c-5.97,18.07 -10.64,33.64 -17.83,52 -3.73,9.23 -9.48,16.19 -18.52,21.68 -8.64,4.78 -16.9,5.76 -25.85,2.73 -18.24,-6.17 -25.77,-26.78 -19.44,-45.49zm150.17 38.5c-13.08,-4.42 -16.95,-19.33 -13.95,-32.67 1.64,-6.4 3.04,-11.9 4.4,-16.8l44.27 14.98 -6.17 18.23c-4.15,12.28 -16.82,20.23 -28.55,16.26zm-186.33 284.19l-50.58 0.85 17.93 -39.65 32.65 38.8zm-115.2 -143.74l36.28 43.97 -47.97 106.11 -56.94 1.74 -36.95 81.72 374.66 -9.71 8.05 -17.81 -240.27 -287.54 -36.86 81.52zm-172.64 324.34l79.23 50.8 -26.38 41.15c-20.9,32.59 -29.04,67.58 -23.21,102.11 6.3,33.28 23.96,59.55 52.41,77.79 28.25,18.11 59.63,23.27 92.86,15.33 33.63,-8.54 61.59,-29.89 82.18,-62.01l71.88 -112.13 -284.47 -182.45 -44.5 69.41zm128.32 199.67c-19.52,-12.52 -20.84,-41.5 -7.7,-61.99l25.72 -39.87 67.31 43.15 -25.69 40.06c-13.01,20.31 -40.06,31.2 -59.64,18.65zm-43.49 136.29l-56.56 65.3 -194.01 -166.94 -61.01 70.43 195.41 165.32 -56.42 65.12 61.99 53.71 172.6 -199.23 -62 -53.71zm-446 107.81l233.19 244.62 59.68 -56.89 -233.19 -244.62 -59.68 56.89zm-9.35 167.05l53.6 -69.73 -5.17 -4.34c-41.59,-35.45 -106.89,-32.67 -153.64,7.82 -50.95,44.15 -62.23,115.19 -24.23,159.06 31.87,36.79 84.33,34.7 128.7,12.37 26.42,-13.23 57.29,-30.5 71.91,-13.63 9.32,10.77 6.47,28.67 -5.92,39.41 -16.17,14.01 -32.45,8.23 -46.09,-7.51l-54.13 70.09 5 4.37c40.64,35.53 103.08,35.9 149.87,-4.64 51.23,-44.37 58.25,-112.01 20.53,-155.56 -31.12,-35.92 -83.18,-35.89 -127.64,-15.74 -28.53,12.97 -58.49,34.37 -73.15,17.44 -8.58,-9.9 -3.01,-31.67 10.14,-43.06l3.3 -2.86 0.05 -0.05c13.58,-9.02 32.9,-9.56 41.1,-0.1l5.77 6.66zm-70.78 243.55l-72.73 46.63 -138.85 -215.01 -78.45 50.3 140.66 213.84 -72.55 46.5 44.27 69.06 221.92 -142.26 -44.27 -69.06zm-523.87 385.69l9.19 -4.15c47.61,-21.53 81.97,-55.68 102.34,-101.65 18,-44.97 17.27,-89.33 -2.04,-132.05 -19.38,-42.85 -52.16,-72.64 -97.82,-88.68 -47.47,-14.83 -95.71,-11.39 -143.64,10.11 -24.26,10.97 -45.01,25.38 -62.2,43.28 -16.78,17.96 -28.95,37.44 -37.08,58.71l-2.61 6.91 78.27 29.1 2.96 -6.99c10.64,-25.46 28.52,-43.6 54.6,-55.39 25.9,-11.71 50.93,-13.84 76.24,-6.35 25.55,7.54 42.98,22.12 53.06,44.42 9.97,22.05 9.4,44.77 -1.71,69.19 -11,23.98 -29.04,41.41 -55.06,53.17 -25.63,11.58 -51.06,13.02 -77.53,4.33l-7.14 -2.42 -29.92 78.02 7.04 2.54c37.41,13.25 84.32,16.08 132.86,-3.19l0.19 1.09zm-287.29 -252.16l-79.31 22.52 34.96 123.1 -108.65 30.85 -34.95 -123.1 -79.31 22.52 92.31 325.11 79.31 -22.52 -34.95 -123.11 108.64 -30.85 34.96 123.11 79.32 -22.53 -92.33 -325.1zm-447.85 177.24c18.81,-2.39 35.19,1.01 50.04,10.6 15.03,9.77 23.15,22.08 25.13,37.64l25.26 198.73 82.21 -10.45 -25.62 -201.65c-4.78,-37.62 -22.97,-68.35 -54.12,-91.45 -31.04,-22.9 -69.46,-31.65 -113.62,-26.04 -43.8,5.56 -78.6,23.63 -103.07,53.57 -24.38,30.16 -34.3,64.46 -29.52,102.09l25.62 201.64 82.22 -10.45 -25.26 -198.72c-4.15,-32.73 26.65,-61.18 60.73,-65.51zm-289.24 -61.07l-3.34 132 -97.32 -134.55 -100.32 -2.53 78.07 123.25c-15.99,6.76 -25.19,13.91 -36.29,28.08 -15.54,19.94 -23.82,41.85 -24.41,65.19l-0.21 8.43c-0.96,37.93 12.05,58.37 32.86,79.37 12.22,12.13 26.45,21.29 42.84,27.51 18.88,6.2 38.56,9.56 58.73,10.07l123.49 3.12 8.32 -337.86 -82.42 -2.08zm-52.98 175.86l18.03 0.45 -0.01 0.22 30.7 0.77 -1.99 78.56 -36.13 -0.91c-15.45,-0.39 -34.24,-4.88 -42.86,-12.33 -8.74,-8.23 -12.81,-17.21 -12.55,-27.59 0.59,-23.32 22.13,-39.75 44.81,-39.17zm-392.07 129.96l10.01 1.27c51.83,6.59 98.98,-4.52 140.41,-33.02 38.88,-28.89 61.47,-67.07 67.38,-113.58 5.93,-46.65 -6.4,-89.19 -36.91,-126.76 -32.68,-37.49 -75.58,-59.82 -127.68,-66.59 -26.41,-3.36 -51.63,-1.94 -75.65,4.32 -23.7,6.5 -44.26,16.73 -62.33,30.6l-5.84 4.52 51.45 65.77 6.19 -4.4c22.39,-16.13 47.12,-22.23 75.52,-18.62 28.19,3.59 50.63,14.88 68.27,34.51 17.82,19.8 25.05,41.34 21.96,65.63 -3.05,24 -15.43,43.06 -37.68,58.05 -21.92,14.67 -46.42,20.08 -74.75,16.47 -27.9,-3.54 -50.32,-15.62 -68.32,-36.89l-4.82 -5.81 -66.34 50.81 4.66 5.85c24.94,30.88 63.44,57.85 114.89,66.84l-0.42 1.03zm-113.16 -364.78l-79.31 -22.52 -34.96 123.1 -108.64 -30.85 34.95 -123.1 -79.31 -22.53 -92.31 325.11 79.31 22.52 34.95 -123.1 108.65 30.86 -34.96 123.1 79.31 22.52 92.32 -325.11z"/>
   </g>
   <polygon class="fil0" points="5100.21,1579.58 5100.21,2029.3 5656.6,2029.3 5656.6,3838.19 6112.06,3838.19 6112.06,2029.3 6667.02,2029.3 6667.02,1579.58 "/>
   <polygon id="1" class="fil0" points="8822.29,1579.11 8335.74,1579.11 7797.52,2816.77 7260.73,1579.11 6779.92,1579.11 7798.95,3888.9 "/>
   <path id="2" class="fil0" d="M10683.8 3518.61l-323.41 -323.89c-134.91,134.43 -297.09,201.89 -487.98,201.89 -189.46,0 -351.16,-66.98 -484.64,-200.46 -134.91,-134.91 -201.89,-297.09 -201.89,-486.54 0,-188.02 66.98,-350.21 201.89,-486.55 132.52,-134.92 294.23,-201.9 484.64,-201.9 188.02,0 350.2,66.98 486.55,201.9l323.89 -323.89c-187.07,-179.41 -464.07,-334.42 -813.31,-334.42l1.43 -5.26c-313.84,0 -583.19,112.43 -808.52,336.81 -223.9,226.29 -335.85,496.59 -335.85,811.87 0,315.75 111.95,586.06 335.85,810.44 223.42,221.5 492.77,332.5 808.52,333.45 352.6,0 627.69,-149.74 812.83,-333.45z"/>
   <path id="3" class="fil0" d="M12137.23 2197.7c0,-165.53 -59.8,-309.06 -178.92,-430.58 -123.91,-125.34 -273.18,-187.54 -447.32,-187.54l-156.92 0 -473.64 0 0 2258.61 838.67 0c194.71,0 360.72,-69.85 498.03,-210.02 138.26,-137.79 207.15,-304.76 207.15,-501.39 0,-195.19 -68.89,-362.64 -205.72,-501.85 -42.57,-40.67 -118.16,-87.08 -173.18,-114.82 41.62,-74.16 93.77,-204.29 93.77,-312.41l-1.92 0zm-417.18 1198.43l-297.09 0 -89.94 0 0 -548.26c135.87,0 252.6,-6.22 387.03,1.43 140.18,9.09 262.18,127.26 262.18,277.48 0,147.84 -114.82,269.35 -262.18,269.35zm-19.13 -1180.25c0,114.82 -91.38,195.67 -198.55,207.63 -72.71,5.74 -129.17,9.09 -169.35,11.01l0 -413.83 177.97 0c105.25,0 189.93,90.42 189.93,195.19z"/>
   <path id="4" class="fil0" d="M14494.87 3518.61l-323.41 -323.89c-134.91,134.43 -297.09,201.89 -487.98,201.89 -189.46,0 -351.16,-66.98 -484.64,-200.46 -134.91,-134.91 -201.89,-297.09 -201.89,-486.54 0,-188.02 66.98,-350.21 201.89,-486.55 132.52,-134.92 294.23,-201.9 484.64,-201.9 188.02,0 350.2,66.98 486.55,201.9l323.89 -323.89c-187.07,-179.41 -464.07,-334.42 -813.31,-334.42l1.43 -5.26c-313.84,0 -583.19,112.43 -808.52,336.81 -223.9,226.29 -335.85,496.59 -335.85,811.87 0,315.75 111.95,586.06 335.85,810.44 223.42,221.5 492.77,332.5 808.52,333.45 352.6,0 627.69,-149.74 812.83,-333.45z"/>
  </g>
 </g>
</svg>
